<svg width="1512" height="982" viewBox="0 0 1512 982" fill="none" xmlns="http://www.w3.org/2000/svg">
<g clip-path="url(#clip0_1_2)">
<rect width="1512" height="982" fill="#D9D9D9"/>
<rect width="1512" height="60" fill="#2874AF"/>
<rect y="60" width="1512" height="60" fill="#003A5C"/>
<g filter="url(#filter0_d_1_2)">
<rect y="120" width="1512" height="100" fill="white"/>
</g>
<rect x="971" y="161" width="100" height="24" fill="#D9D9D9"/>
<rect x="1340" y="161" width="100" height="24" fill="#D9D9D9"/>
<rect x="848" y="161" width="100" height="24" fill="#D9D9D9"/>
<rect x="1094" y="161" width="100" height="24" fill="#D9D9D9"/>
<rect x="1217" y="161" width="100" height="24" fill="#D9D9D9"/>
<g clip-path="url(#clip1_1_2)">
<path d="M149.801 193.746H48V146.003H149.801V193.746Z" fill="#3A71B5"/>
<path d="M64.2803 174.464C64.1812 173.702 64.2303 172.598 64.2303 172.056L65.3766 159.04H69.6375L68.4698 172.171C68.2178 175.013 69.3328 177.039 72.1694 177.039C75.0698 177.039 76.6027 174.977 76.8547 172.457L78.064 159.04H82.323L81.1459 172.289C80.6703 177.389 77.2864 181.209 71.8167 181.209C67.5506 181.209 64.8016 178.452 64.2803 174.464" fill="white"/>
<path d="M83.3016 170.057C83.8579 163.81 88.0729 158.629 95.3536 158.629C97.2713 158.629 99.1104 159.067 100.949 160.248L100.463 165.41C98.7833 163.2 96.7891 162.842 94.9473 162.842C90.4167 162.842 87.9317 165.988 87.5755 169.972C87.2317 173.85 89.2344 177.005 93.624 177.005C95.5401 177.005 97.5713 176.452 99.6989 174.326L99.2271 179.625C97.1563 180.748 95.2281 181.26 93.2885 181.26C86.0833 181.26 82.7839 175.907 83.3016 170.057Z" fill="white"/>
<path d="M104.351 159.04H108.601L107.049 176.715H113.138C113.567 176.715 115.018 176.693 115.411 176.67C115.39 176.883 115.025 180.753 115.025 180.753H102.424L104.351 159.04Z" fill="white"/>
<path d="M127.58 158.047L127.286 158.05L115.651 180.753H120.167L121.802 177.309H129.999L131.021 180.753H135.526L127.58 158.047ZM126.491 167.147C126.632 166.838 126.756 166.457 126.805 166.236C126.806 166.232 126.873 166.232 126.873 166.232C126.896 166.506 126.945 166.831 127.035 167.151C127.267 168.141 128.923 173.637 128.923 173.637H123.558C123.558 173.637 126.433 167.287 126.491 167.147" fill="white"/>
<path d="M170.321 176.01C170.893 176.01 171.447 175.918 171.986 175.733C172.525 175.548 173.004 175.24 173.425 174.811C173.845 174.383 174.181 173.824 174.434 173.134C174.686 172.444 174.812 171.603 174.812 170.611C174.812 169.702 174.723 168.883 174.547 168.151C174.371 167.419 174.08 166.793 173.677 166.271C173.273 165.75 172.739 165.35 172.075 165.073C171.41 164.795 170.59 164.656 169.614 164.656H166.789V176.01H170.321ZM170.598 161.325C171.759 161.325 172.84 161.511 173.841 161.881C174.841 162.251 175.708 162.805 176.44 163.546C177.171 164.286 177.743 165.211 178.155 166.321C178.567 167.432 178.773 168.735 178.773 170.232C178.773 171.545 178.605 172.755 178.269 173.865C177.932 174.976 177.423 175.935 176.742 176.742C176.06 177.549 175.211 178.185 174.194 178.647C173.176 179.11 171.977 179.341 170.598 179.341H162.827V161.325H170.598Z" fill="#100F0D"/>
<path d="M189.269 172.957C189.119 173.092 188.929 173.197 188.701 173.272C188.475 173.349 188.231 173.411 187.971 173.462C187.709 173.512 187.436 173.555 187.151 173.588C186.864 173.622 186.579 173.664 186.292 173.714C186.023 173.765 185.757 173.833 185.497 173.916C185.236 174 185.009 174.114 184.816 174.257C184.623 174.4 184.467 174.581 184.349 174.799C184.232 175.018 184.173 175.295 184.173 175.632C184.173 175.951 184.232 176.221 184.349 176.439C184.467 176.658 184.627 176.831 184.829 176.957C185.031 177.083 185.267 177.171 185.535 177.222C185.804 177.272 186.083 177.297 186.368 177.297C187.075 177.297 187.621 177.179 188.008 176.944C188.395 176.709 188.68 176.427 188.867 176.099C189.051 175.771 189.164 175.438 189.207 175.102C189.248 174.766 189.269 174.496 189.269 174.295V172.957ZM180.994 170.308C181.044 169.467 181.255 168.769 181.624 168.214C181.995 167.659 182.465 167.213 183.037 166.877C183.609 166.54 184.253 166.3 184.968 166.157C185.683 166.015 186.401 165.943 187.125 165.943C187.781 165.943 188.445 165.989 189.119 166.082C189.791 166.174 190.405 166.355 190.96 166.624C191.515 166.894 191.969 167.267 192.323 167.747C192.676 168.226 192.852 168.862 192.852 169.652V176.439C192.852 177.028 192.887 177.591 192.953 178.13C193.02 178.668 193.139 179.072 193.307 179.341H189.673C189.607 179.139 189.551 178.933 189.509 178.722C189.467 178.513 189.437 178.298 189.421 178.079C188.849 178.668 188.176 179.081 187.403 179.315C186.628 179.551 185.839 179.669 185.031 179.669C184.408 179.669 183.828 179.594 183.289 179.442C182.752 179.29 182.281 179.055 181.877 178.735C181.473 178.416 181.158 178.012 180.931 177.524C180.704 177.037 180.59 176.456 180.59 175.783C180.59 175.044 180.72 174.433 180.981 173.954C181.242 173.474 181.579 173.092 181.991 172.805C182.403 172.52 182.873 172.305 183.403 172.162C183.933 172.02 184.467 171.906 185.005 171.822C185.544 171.738 186.073 171.67 186.595 171.62C187.117 171.57 187.579 171.494 187.983 171.393C188.387 171.292 188.705 171.145 188.941 170.951C189.177 170.758 189.287 170.476 189.269 170.105C189.269 169.719 189.207 169.412 189.08 169.185C188.955 168.958 188.785 168.782 188.576 168.655C188.365 168.529 188.121 168.445 187.844 168.403C187.567 168.361 187.268 168.34 186.949 168.34C186.241 168.34 185.687 168.491 185.284 168.794C184.88 169.097 184.644 169.601 184.577 170.308H180.994" fill="#100F0D"/>
<path d="M198.857 179.341L194.392 166.296H198.151L200.901 175.203H200.952L203.701 166.296H207.259L202.844 179.341H198.857" fill="#100F0D"/>
<path d="M212.432 166.296V179.341H208.849V166.296H212.432ZM208.849 164.277V161.325H212.432V164.277H208.849" fill="#100F0D"/>
<path d="M224.367 171.229C224.265 170.733 224.092 170.295 223.848 169.917C223.604 169.538 223.289 169.232 222.903 168.996C222.515 168.761 222.028 168.643 221.439 168.643C220.849 168.643 220.353 168.761 219.951 168.996C219.547 169.232 219.223 169.543 218.979 169.929C218.735 170.316 218.559 170.758 218.449 171.255C218.34 171.75 218.285 172.268 218.285 172.805C218.285 173.31 218.344 173.815 218.461 174.32C218.579 174.825 218.768 175.274 219.029 175.67C219.289 176.065 219.619 176.385 220.013 176.628C220.408 176.873 220.884 176.995 221.439 176.995C222.028 176.995 222.52 176.877 222.915 176.641C223.311 176.406 223.625 176.09 223.861 175.695C224.096 175.3 224.265 174.849 224.367 174.345C224.467 173.84 224.517 173.32 224.517 172.781C224.517 172.243 224.467 171.725 224.367 171.229V171.229ZM224.517 177.675C224.096 178.382 223.545 178.891 222.865 179.202C222.183 179.513 221.413 179.669 220.556 179.669C219.58 179.669 218.723 179.479 217.981 179.101C217.241 178.722 216.632 178.21 216.153 177.562C215.673 176.914 215.312 176.17 215.068 175.329C214.824 174.488 214.701 173.613 214.701 172.705C214.701 171.831 214.824 170.985 215.068 170.169C215.312 169.353 215.673 168.634 216.153 168.012C216.632 167.389 217.233 166.889 217.957 166.511C218.68 166.132 219.521 165.943 220.48 165.943C221.253 165.943 221.989 166.107 222.688 166.435C223.385 166.763 223.937 167.246 224.341 167.886H224.391V161.325H227.975V179.341H224.568V177.675H224.517Z" fill="#100F0D"/>
<path d="M248.74 179.202C247.881 179.563 247.015 179.745 246.141 179.745C244.761 179.745 243.52 179.505 242.419 179.026C241.317 178.546 240.388 177.886 239.631 177.045C238.873 176.204 238.293 175.215 237.891 174.079C237.487 172.944 237.285 171.721 237.285 170.409C237.285 169.063 237.487 167.814 237.891 166.662C238.293 165.51 238.873 164.505 239.631 163.647C240.388 162.789 241.317 162.116 242.419 161.628C243.52 161.14 244.761 160.897 246.141 160.897C247.065 160.897 247.961 161.035 248.828 161.313C249.695 161.59 250.476 161.998 251.175 162.537C251.872 163.075 252.449 163.739 252.903 164.529C253.357 165.321 253.635 166.229 253.735 167.255H249.951C249.715 166.246 249.26 165.488 248.588 164.984C247.916 164.479 247.1 164.227 246.141 164.227C245.249 164.227 244.492 164.4 243.869 164.745C243.248 165.089 242.743 165.552 242.356 166.132C241.969 166.712 241.688 167.373 241.511 168.113C241.335 168.853 241.245 169.618 241.245 170.409C241.245 171.166 241.335 171.902 241.511 172.617C241.688 173.332 241.969 173.975 242.356 174.547C242.743 175.119 243.248 175.577 243.869 175.922C244.492 176.266 245.249 176.439 246.141 176.439C247.452 176.439 248.467 176.107 249.181 175.443C249.896 174.778 250.312 173.815 250.429 172.554H246.444V169.601H254.013V179.341H251.489L251.087 177.297C250.38 178.205 249.597 178.841 248.74 179.202" fill="#100F0D"/>
<path d="M264.724 169.349C264.295 168.878 263.643 168.643 262.768 168.643C262.196 168.643 261.721 168.74 261.343 168.933C260.964 169.127 260.661 169.366 260.433 169.652C260.207 169.938 260.047 170.241 259.955 170.56C259.863 170.88 259.808 171.166 259.791 171.418H265.619C265.451 170.51 265.152 169.82 264.724 169.349V169.349ZM260.675 176.212C261.212 176.733 261.985 176.995 262.995 176.995C263.719 176.995 264.341 176.813 264.863 176.451C265.384 176.09 265.703 175.707 265.821 175.304H268.975C268.471 176.868 267.696 177.987 266.653 178.66C265.611 179.333 264.349 179.669 262.869 179.669C261.843 179.669 260.917 179.505 260.093 179.177C259.269 178.849 258.571 178.382 258 177.776C257.427 177.171 256.985 176.448 256.675 175.607C256.364 174.766 256.208 173.84 256.208 172.831C256.208 171.855 256.368 170.948 256.687 170.105C257.007 169.265 257.46 168.538 258.049 167.923C258.639 167.31 259.341 166.826 260.156 166.473C260.972 166.12 261.876 165.943 262.869 165.943C263.98 165.943 264.947 166.157 265.771 166.586C266.595 167.015 267.272 167.591 267.801 168.315C268.332 169.038 268.713 169.862 268.951 170.787C269.185 171.712 269.269 172.68 269.203 173.689H259.791C259.841 174.849 260.135 175.691 260.675 176.212" fill="#100F0D"/>
<path d="M269.959 168.693V166.296H272.103V165.287C272.103 164.126 272.465 163.176 273.188 162.436C273.911 161.696 275.005 161.325 276.468 161.325C276.787 161.325 277.108 161.338 277.427 161.364C277.747 161.388 278.059 161.41 278.361 161.427V164.101C277.94 164.05 277.503 164.025 277.048 164.025C276.561 164.025 276.212 164.139 276.001 164.366C275.791 164.593 275.687 164.976 275.687 165.514V166.296H278.159V168.693H275.687V179.341H272.103V168.693H269.959" fill="#100F0D"/>
<path d="M277.907 168.693V166.296H280.051V165.287C280.051 164.126 280.413 163.176 281.136 162.436C281.859 161.696 282.952 161.325 284.416 161.325C284.735 161.325 285.056 161.338 285.375 161.364C285.695 161.388 286.007 161.41 286.309 161.427V164.101C285.888 164.05 285.451 164.025 284.996 164.025C284.508 164.025 284.16 164.139 283.949 164.366C283.739 164.593 283.635 164.976 283.635 165.514V166.296H286.107V168.693H283.635V179.341H280.051V168.693H277.907" fill="#100F0D"/>
<path d="M295.556 169.349C295.127 168.878 294.476 168.643 293.6 168.643C293.029 168.643 292.553 168.74 292.175 168.933C291.796 169.127 291.493 169.366 291.267 169.652C291.04 169.938 290.88 170.241 290.787 170.56C290.695 170.88 290.64 171.166 290.623 171.418H296.452C296.284 170.51 295.985 169.82 295.556 169.349V169.349ZM291.507 176.212C292.044 176.733 292.819 176.995 293.828 176.995C294.551 176.995 295.173 176.813 295.695 176.451C296.216 176.09 296.536 175.707 296.653 175.304H299.808C299.303 176.868 298.529 177.987 297.487 178.66C296.443 179.333 295.181 179.669 293.701 179.669C292.675 179.669 291.751 179.505 290.925 179.177C290.101 178.849 289.404 178.382 288.832 177.776C288.26 177.171 287.819 176.448 287.508 175.607C287.196 174.766 287.04 173.84 287.04 172.831C287.04 171.855 287.2 170.948 287.52 170.105C287.84 169.265 288.293 168.538 288.883 167.923C289.471 167.31 290.173 166.826 290.989 166.473C291.805 166.12 292.709 165.943 293.701 165.943C294.812 165.943 295.779 166.157 296.603 166.586C297.427 167.015 298.104 167.591 298.635 168.315C299.164 169.038 299.547 169.862 299.783 170.787C300.017 171.712 300.101 172.68 300.035 173.689H290.623C290.675 174.849 290.968 175.691 291.507 176.212" fill="#100F0D"/>
<path d="M305.561 166.296V168.113H305.636C306.091 167.355 306.679 166.805 307.401 166.46C308.125 166.115 308.865 165.943 309.621 165.943C310.583 165.943 311.367 166.073 311.981 166.334C312.596 166.595 313.08 166.957 313.432 167.419C313.785 167.882 314.033 168.445 314.176 169.11C314.32 169.774 314.393 170.51 314.393 171.317V179.341H310.809V171.973C310.809 170.897 310.64 170.094 310.304 169.563C309.968 169.034 309.371 168.769 308.512 168.769C307.536 168.769 306.831 169.059 306.393 169.639C305.955 170.22 305.736 171.174 305.736 172.503V179.341H302.155V166.296H305.561" fill="#100F0D"/>
<path d="M327.536 174.9C327.755 175.321 328.045 175.661 328.407 175.922C328.769 176.183 329.193 176.376 329.681 176.502C330.169 176.628 330.675 176.692 331.195 176.692C331.548 176.692 331.927 176.662 332.331 176.603C332.733 176.545 333.113 176.431 333.465 176.263C333.819 176.095 334.113 175.863 334.348 175.569C334.584 175.274 334.703 174.9 334.703 174.446C334.703 173.958 334.547 173.563 334.235 173.26C333.924 172.957 333.516 172.705 333.011 172.503C332.508 172.301 331.936 172.125 331.296 171.973C330.657 171.822 330.008 171.654 329.353 171.469C328.68 171.3 328.024 171.095 327.385 170.85C326.745 170.607 326.175 170.291 325.669 169.904C325.165 169.517 324.757 169.034 324.447 168.453C324.133 167.873 323.979 167.171 323.979 166.347C323.979 165.422 324.176 164.618 324.572 163.937C324.967 163.255 325.484 162.688 326.123 162.234C326.763 161.779 327.487 161.444 328.293 161.224C329.101 161.006 329.908 160.897 330.716 160.897C331.657 160.897 332.563 161.001 333.428 161.212C334.293 161.422 335.064 161.763 335.736 162.234C336.409 162.705 336.944 163.306 337.34 164.038C337.733 164.77 337.932 165.657 337.932 166.699H334.097C334.064 166.162 333.949 165.716 333.756 165.362C333.563 165.01 333.305 164.732 332.987 164.529C332.667 164.328 332.3 164.185 331.889 164.101C331.476 164.017 331.027 163.975 330.539 163.975C330.22 163.975 329.899 164.009 329.58 164.076C329.26 164.143 328.971 164.261 328.709 164.428C328.449 164.597 328.233 164.808 328.065 165.06C327.897 165.312 327.815 165.632 327.815 166.019C327.815 166.372 327.881 166.658 328.016 166.877C328.151 167.095 328.415 167.297 328.811 167.482C329.205 167.667 329.752 167.852 330.452 168.037C331.148 168.222 332.061 168.458 333.188 168.744C333.524 168.811 333.992 168.933 334.589 169.11C335.185 169.286 335.779 169.568 336.368 169.955C336.956 170.342 337.465 170.859 337.895 171.506C338.323 172.154 338.537 172.983 338.537 173.992C338.537 174.816 338.377 175.581 338.059 176.288C337.737 176.995 337.264 177.605 336.632 178.117C336.003 178.631 335.22 179.029 334.285 179.315C333.352 179.601 332.272 179.745 331.044 179.745C330.052 179.745 329.088 179.622 328.155 179.378C327.221 179.135 326.397 178.752 325.681 178.231C324.967 177.709 324.399 177.045 323.979 176.237C323.559 175.43 323.356 174.471 323.373 173.361H327.208C327.208 173.966 327.317 174.479 327.536 174.9" fill="#100F0D"/>
<path d="M346.737 168.643C346.165 168.643 345.685 168.773 345.299 169.034C344.912 169.295 344.597 169.631 344.353 170.044C344.109 170.455 343.937 170.91 343.836 171.405C343.735 171.902 343.684 172.394 343.684 172.882C343.684 173.352 343.735 173.833 343.836 174.32C343.937 174.808 344.101 175.25 344.328 175.644C344.556 176.04 344.861 176.364 345.248 176.615C345.635 176.868 346.107 176.995 346.663 176.995C347.519 176.995 348.179 176.755 348.643 176.275C349.105 175.796 349.396 175.153 349.512 174.345H352.969C352.733 176.078 352.061 177.398 350.952 178.306C349.841 179.214 348.419 179.669 346.687 179.669C345.712 179.669 344.816 179.505 344 179.177C343.183 178.849 342.491 178.391 341.919 177.802C341.345 177.213 340.9 176.511 340.581 175.695C340.261 174.879 340.101 173.983 340.101 173.008C340.101 171.998 340.248 171.061 340.543 170.194C340.837 169.328 341.271 168.579 341.841 167.949C342.413 167.318 343.113 166.826 343.937 166.473C344.761 166.12 345.703 165.943 346.763 165.943C347.536 165.943 348.281 166.044 348.996 166.246C349.711 166.448 350.349 166.755 350.913 167.166C351.476 167.579 351.936 168.092 352.288 168.706C352.641 169.32 352.843 170.047 352.895 170.888H349.387C349.151 169.391 348.268 168.643 346.737 168.643" fill="#100F0D"/>
<path d="M358.571 161.325V168.113H358.647C359.101 167.355 359.681 166.805 360.388 166.46C361.095 166.115 361.784 165.943 362.456 165.943C363.416 165.943 364.201 166.073 364.816 166.334C365.429 166.595 365.913 166.957 366.267 167.419C366.62 167.882 366.868 168.445 367.011 169.11C367.155 169.774 367.227 170.51 367.227 171.317V179.341H363.643V171.973C363.643 170.897 363.475 170.094 363.137 169.563C362.801 169.034 362.204 168.769 361.347 168.769C360.371 168.769 359.665 169.059 359.228 169.639C358.789 170.22 358.571 171.174 358.571 172.503V179.341H354.988V161.325H358.571" fill="#100F0D"/>
<path d="M373.281 174.358C373.383 174.854 373.555 175.3 373.799 175.695C374.043 176.09 374.367 176.406 374.771 176.641C375.175 176.877 375.677 176.995 376.284 176.995C376.889 176.995 377.397 176.877 377.811 176.641C378.223 176.406 378.551 176.09 378.793 175.695C379.037 175.3 379.211 174.854 379.312 174.358C379.412 173.862 379.463 173.352 379.463 172.831C379.463 172.31 379.412 171.797 379.312 171.292C379.211 170.787 379.037 170.342 378.793 169.955C378.551 169.568 378.223 169.252 377.811 169.009C377.397 168.765 376.889 168.643 376.284 168.643C375.677 168.643 375.175 168.765 374.771 169.009C374.367 169.252 374.043 169.568 373.799 169.955C373.555 170.342 373.383 170.787 373.281 171.292C373.18 171.797 373.129 172.31 373.129 172.831C373.129 173.352 373.18 173.862 373.281 174.358ZM370.027 169.993C370.345 169.144 370.8 168.42 371.389 167.823C371.977 167.226 372.684 166.763 373.508 166.435C374.332 166.107 375.257 165.943 376.284 165.943C377.309 165.943 378.239 166.107 379.071 166.435C379.904 166.763 380.616 167.226 381.204 167.823C381.792 168.42 382.247 169.144 382.565 169.993C382.887 170.842 383.045 171.788 383.045 172.831C383.045 173.874 382.887 174.816 382.565 175.657C382.247 176.498 381.792 177.217 381.204 177.814C380.616 178.412 379.904 178.87 379.071 179.189C378.239 179.509 377.309 179.669 376.284 179.669C375.257 179.669 374.332 179.509 373.508 179.189C372.684 178.87 371.977 178.412 371.389 177.814C370.8 177.217 370.345 176.498 370.027 175.657C369.707 174.816 369.547 173.874 369.547 172.831C369.547 171.788 369.707 170.842 370.027 169.993Z" fill="#100F0D"/>
<path d="M388.696 174.358C388.797 174.854 388.969 175.3 389.215 175.695C389.457 176.09 389.783 176.406 390.185 176.641C390.589 176.877 391.093 176.995 391.699 176.995C392.304 176.995 392.813 176.877 393.227 176.641C393.637 176.406 393.965 176.09 394.209 175.695C394.452 175.3 394.625 174.854 394.728 174.358C394.828 173.862 394.879 173.352 394.879 172.831C394.879 172.31 394.828 171.797 394.728 171.292C394.625 170.787 394.452 170.342 394.209 169.955C393.965 169.568 393.637 169.252 393.227 169.009C392.813 168.765 392.304 168.643 391.699 168.643C391.093 168.643 390.589 168.765 390.185 169.009C389.783 169.252 389.457 169.568 389.215 169.955C388.969 170.342 388.797 170.787 388.696 171.292C388.596 171.797 388.545 172.31 388.545 172.831C388.545 173.352 388.596 173.862 388.696 174.358ZM385.443 169.993C385.761 169.144 386.216 168.42 386.804 167.823C387.393 167.226 388.1 166.763 388.924 166.435C389.747 166.107 390.673 165.943 391.699 165.943C392.725 165.943 393.655 166.107 394.487 166.435C395.32 166.763 396.031 167.226 396.619 167.823C397.208 168.42 397.663 169.144 397.981 169.993C398.301 170.842 398.46 171.788 398.46 172.831C398.46 173.874 398.301 174.816 397.981 175.657C397.663 176.498 397.208 177.217 396.619 177.814C396.031 178.412 395.32 178.87 394.487 179.189C393.655 179.509 392.725 179.669 391.699 179.669C390.673 179.669 389.747 179.509 388.924 179.189C388.1 178.87 387.393 178.412 386.804 177.814C386.216 177.217 385.761 176.498 385.443 175.657C385.121 174.816 384.961 173.874 384.961 172.831C384.961 171.788 385.121 170.842 385.443 169.993Z" fill="#100F0D"/>
<path d="M404.467 161.325V179.341H400.884V161.325H404.467Z" fill="#100F0D"/>
<path d="M417.636 174.358C417.737 174.854 417.909 175.3 418.155 175.695C418.397 176.09 418.723 176.406 419.125 176.641C419.529 176.877 420.033 176.995 420.639 176.995C421.244 176.995 421.753 176.877 422.167 176.641C422.577 176.406 422.905 176.09 423.149 175.695C423.393 175.3 423.565 174.854 423.668 174.358C423.768 173.862 423.819 173.352 423.819 172.831C423.819 172.31 423.768 171.797 423.668 171.292C423.565 170.787 423.393 170.342 423.149 169.955C422.905 169.568 422.577 169.252 422.167 169.009C421.753 168.765 421.244 168.643 420.639 168.643C420.033 168.643 419.529 168.765 419.125 169.009C418.723 169.252 418.397 169.568 418.155 169.955C417.909 170.342 417.737 170.787 417.636 171.292C417.536 171.797 417.485 172.31 417.485 172.831C417.485 173.352 417.536 173.862 417.636 174.358ZM414.383 169.993C414.701 169.144 415.156 168.42 415.744 167.823C416.333 167.226 417.04 166.763 417.864 166.435C418.687 166.107 419.613 165.943 420.639 165.943C421.665 165.943 422.595 166.107 423.427 166.435C424.26 166.763 424.971 167.226 425.56 167.823C426.148 168.42 426.603 169.144 426.921 169.993C427.241 170.842 427.4 171.788 427.4 172.831C427.4 173.874 427.241 174.816 426.921 175.657C426.603 176.498 426.148 177.217 425.56 177.814C424.971 178.412 424.26 178.87 423.427 179.189C422.595 179.509 421.665 179.669 420.639 179.669C419.613 179.669 418.687 179.509 417.864 179.189C417.04 178.87 416.333 178.412 415.744 177.814C415.156 177.217 414.701 176.498 414.383 175.657C414.063 174.816 413.901 173.874 413.901 172.831C413.901 171.788 414.063 170.842 414.383 169.993Z" fill="#100F0D"/>
<path d="M428.36 168.693V166.296H430.505V165.287C430.505 164.126 430.867 163.176 431.589 162.436C432.313 161.696 433.407 161.325 434.869 161.325C435.189 161.325 435.508 161.338 435.829 161.364C436.148 161.388 436.459 161.41 436.763 161.427V164.101C436.341 164.05 435.904 164.025 435.451 164.025C434.961 164.025 434.613 164.139 434.403 164.366C434.192 164.593 434.088 164.976 434.088 165.514V166.296H436.561V168.693H434.088V179.341H430.505V168.693H428.36" fill="#100F0D"/>
<path d="M451.095 161.325L455.308 173.714H455.357L459.344 161.325H464.921V179.341H461.212V166.574H461.161L456.745 179.341H453.692L449.277 166.699H449.228V179.341H445.517V161.325H451.095" fill="#100F0D"/>
<path d="M475.908 169.349C475.48 168.878 474.828 168.643 473.952 168.643C473.381 168.643 472.905 168.74 472.527 168.933C472.149 169.127 471.845 169.366 471.619 169.652C471.392 169.938 471.231 170.241 471.14 170.56C471.047 170.88 470.992 171.166 470.976 171.418H476.804C476.636 170.51 476.337 169.82 475.908 169.349V169.349ZM471.859 176.212C472.396 176.733 473.171 176.995 474.18 176.995C474.903 176.995 475.525 176.813 476.048 176.451C476.568 176.09 476.888 175.707 477.007 175.304H480.16C479.656 176.868 478.881 177.987 477.839 178.66C476.795 179.333 475.533 179.669 474.055 179.669C473.028 179.669 472.103 179.505 471.279 179.177C470.453 178.849 469.756 178.382 469.184 177.776C468.612 177.171 468.171 176.448 467.859 175.607C467.548 174.766 467.393 173.84 467.393 172.831C467.393 171.855 467.553 170.948 467.872 170.105C468.191 169.265 468.645 168.538 469.235 167.923C469.824 167.31 470.525 166.826 471.341 166.473C472.157 166.12 473.061 165.943 474.055 165.943C475.164 165.943 476.131 166.157 476.955 166.586C477.78 167.015 478.456 167.591 478.987 168.315C479.516 169.038 479.899 169.862 480.135 170.787C480.371 171.712 480.453 172.68 480.388 173.689H470.976C471.025 174.849 471.32 175.691 471.859 176.212" fill="#100F0D"/>
<path d="M491.616 171.229C491.513 170.733 491.341 170.295 491.099 169.917C490.853 169.538 490.539 169.232 490.152 168.996C489.765 168.761 489.277 168.643 488.688 168.643C488.1 168.643 487.604 168.761 487.2 168.996C486.796 169.232 486.472 169.543 486.229 169.929C485.984 170.316 485.808 170.758 485.699 171.255C485.589 171.75 485.535 172.268 485.535 172.805C485.535 173.31 485.593 173.815 485.711 174.32C485.829 174.825 486.017 175.274 486.279 175.67C486.54 176.065 486.867 176.385 487.263 176.628C487.659 176.873 488.133 176.995 488.688 176.995C489.277 176.995 489.769 176.877 490.165 176.641C490.56 176.406 490.875 176.09 491.111 175.695C491.345 175.3 491.513 174.849 491.616 174.345C491.716 173.84 491.767 173.32 491.767 172.781C491.767 172.243 491.716 171.725 491.616 171.229V171.229ZM491.767 177.675C491.345 178.382 490.795 178.891 490.115 179.202C489.433 179.513 488.664 179.669 487.805 179.669C486.829 179.669 485.972 179.479 485.231 179.101C484.492 178.722 483.881 178.21 483.401 177.562C482.923 176.914 482.561 176.17 482.317 175.329C482.073 174.488 481.952 173.613 481.952 172.705C481.952 171.831 482.073 170.985 482.317 170.169C482.561 169.353 482.923 168.634 483.401 168.012C483.881 167.389 484.483 166.889 485.207 166.511C485.929 166.132 486.771 165.943 487.729 165.943C488.504 165.943 489.239 166.107 489.937 166.435C490.635 166.763 491.185 167.246 491.589 167.886H491.64V161.325H495.224V179.341H491.817V177.675H491.767Z" fill="#100F0D"/>
<path d="M501.608 166.296V179.341H498.024V166.296H501.608ZM498.024 164.277V161.325H501.608V164.277H498.024" fill="#100F0D"/>
<path d="M510.665 168.643C510.092 168.643 509.613 168.773 509.227 169.034C508.84 169.295 508.524 169.631 508.281 170.044C508.036 170.455 507.864 170.91 507.763 171.405C507.663 171.902 507.612 172.394 507.612 172.882C507.612 173.352 507.663 173.833 507.763 174.32C507.864 174.808 508.028 175.25 508.255 175.644C508.483 176.04 508.788 176.364 509.175 176.615C509.563 176.868 510.033 176.995 510.589 176.995C511.447 176.995 512.107 176.755 512.569 176.275C513.032 175.796 513.323 175.153 513.44 174.345H516.896C516.661 176.078 515.988 177.398 514.879 178.306C513.768 179.214 512.345 179.669 510.615 179.669C509.639 179.669 508.743 179.505 507.927 179.177C507.111 178.849 506.417 178.391 505.845 177.802C505.273 177.213 504.828 176.511 504.508 175.695C504.188 174.879 504.028 173.983 504.028 173.008C504.028 171.998 504.175 171.061 504.469 170.194C504.764 169.328 505.197 168.579 505.769 167.949C506.34 167.318 507.04 166.826 507.864 166.473C508.688 166.12 509.629 165.943 510.689 165.943C511.463 165.943 512.208 166.044 512.923 166.246C513.637 166.448 514.277 166.755 514.84 167.166C515.403 167.579 515.863 168.092 516.216 168.706C516.568 169.32 516.771 170.047 516.821 170.888H513.313C513.077 169.391 512.195 168.643 510.665 168.643" fill="#100F0D"/>
<path d="M522.6 166.296V179.341H519.016V166.296H522.6ZM519.016 164.277V161.325H522.6V164.277H519.016" fill="#100F0D"/>
<path d="M528.831 166.296V168.113H528.907C529.36 167.355 529.949 166.805 530.673 166.46C531.396 166.115 532.136 165.943 532.893 165.943C533.852 165.943 534.637 166.073 535.252 166.334C535.865 166.595 536.349 166.957 536.703 167.419C537.057 167.882 537.304 168.445 537.448 169.11C537.591 169.774 537.663 170.51 537.663 171.317V179.341H534.079V171.973C534.079 170.897 533.911 170.094 533.573 169.563C533.237 169.034 532.64 168.769 531.784 168.769C530.807 168.769 530.101 169.059 529.664 169.639C529.227 170.22 529.007 171.174 529.007 172.503V179.341H525.424V166.296H528.831" fill="#100F0D"/>
<path d="M548.272 169.349C547.843 168.878 547.191 168.643 546.316 168.643C545.744 168.643 545.269 168.74 544.891 168.933C544.512 169.127 544.209 169.366 543.983 169.652C543.755 169.938 543.595 170.241 543.504 170.56C543.409 170.88 543.355 171.166 543.34 171.418H549.168C549 170.51 548.7 169.82 548.272 169.349V169.349ZM544.223 176.212C544.76 176.733 545.533 176.995 546.544 176.995C547.267 176.995 547.889 176.813 548.411 176.451C548.932 176.09 549.251 175.707 549.369 175.304H552.523C552.019 176.868 551.244 177.987 550.201 178.66C549.159 179.333 547.896 179.669 546.417 179.669C545.392 179.669 544.465 179.505 543.641 179.177C542.817 178.849 542.119 178.382 541.548 177.776C540.975 177.171 540.533 176.448 540.223 175.607C539.911 174.766 539.756 173.84 539.756 172.831C539.756 171.855 539.916 170.948 540.235 170.105C540.555 169.265 541.008 168.538 541.599 167.923C542.187 167.31 542.889 166.826 543.705 166.473C544.52 166.12 545.424 165.943 546.417 165.943C547.527 165.943 548.495 166.157 549.319 166.586C550.143 167.015 550.82 167.591 551.349 168.315C551.88 169.038 552.263 169.862 552.499 170.787C552.733 171.712 552.817 172.68 552.751 173.689H543.34C543.389 174.849 543.683 175.691 544.223 176.212" fill="#100F0D"/>
</g>
</g>
<defs>
<filter id="filter0_d_1_2" x="-4" y="117" width="1520" height="108" filterUnits="userSpaceOnUse" color-interpolation-filters="sRGB">
<feFlood flood-opacity="0" result="BackgroundImageFix"/>
<feColorMatrix in="SourceAlpha" type="matrix" values="0 0 0 0 0 0 0 0 0 0 0 0 0 0 0 0 0 0 127 0" result="hardAlpha"/>
<feOffset dy="1"/>
<feGaussianBlur stdDeviation="2"/>
<feComposite in2="hardAlpha" operator="out"/>
<feColorMatrix type="matrix" values="0 0 0 0 0 0 0 0 0 0 0 0 0 0 0 0 0 0 0.25 0"/>
<feBlend mode="normal" in2="BackgroundImageFix" result="effect1_dropShadow_1_2"/>
<feBlend mode="normal" in="SourceGraphic" in2="effect1_dropShadow_1_2" result="shape"/>
</filter>
<clipPath id="clip0_1_2">
<rect width="1512" height="982" fill="white"/>
</clipPath>
<clipPath id="clip1_1_2">
<rect width="504.773" height="47.7467" fill="white" transform="translate(48 146)"/>
</clipPath>
</defs>
</svg>
