<svg width="1512" height="982" viewBox="0 0 1512 982" fill="none" xmlns="http://www.w3.org/2000/svg">
<g clip-path="url(#clip0_1_92)">
<rect width="1512" height="982" fill="#D9D9D9"/>
<rect x="47" y="221" width="1393" height="251" fill="black"/>
<rect width="1512" height="60" fill="#2874AF"/>
<rect y="60" width="1512" height="60" fill="#003A5C"/>
<g filter="url(#filter0_d_1_92)">
<rect y="120" width="1512" height="100" fill="white"/>
</g>
<rect x="971" y="161" width="100" height="24" fill="#D9D9D9"/>
<rect x="1340" y="161" width="100" height="24" fill="#D9D9D9"/>
<rect x="848" y="161" width="100" height="24" fill="#D9D9D9"/>
<rect x="1094" y="161" width="100" height="24" fill="#D9D9D9"/>
<rect x="1217" y="161" width="100" height="24" fill="#D9D9D9"/>
<g clip-path="url(#clip1_1_92)">
<path d="M149.801 193.746H48V146.003H149.801V193.746Z" fill="#3A71B5"/>
<path d="M64.2802 174.464C64.1811 173.702 64.2302 172.598 64.2302 172.056L65.3764 159.04H69.6374L68.4696 172.171C68.2176 175.013 69.3327 177.039 72.1692 177.039C75.0696 177.039 76.6026 174.977 76.8546 172.457L78.0639 159.04H82.3228L81.1458 172.289C80.6702 177.389 77.2863 181.209 71.8166 181.209C67.5504 181.209 64.8015 178.452 64.2802 174.464Z" fill="white"/>
<path d="M83.3017 170.057C83.8579 163.81 88.073 158.629 95.3537 158.629C97.2714 158.629 99.1105 159.067 100.949 160.248L100.463 165.41C98.7834 163.2 96.7891 162.842 94.9474 162.842C90.4167 162.842 87.9318 165.988 87.5755 169.972C87.2318 173.85 89.2345 177.005 93.6241 177.005C95.5402 177.005 97.5714 176.452 99.699 174.326L99.2271 179.625C97.1563 180.748 95.2282 181.26 93.2886 181.26C86.0834 181.26 82.7839 175.907 83.3017 170.057Z" fill="white"/>
<path d="M104.351 159.04H108.601L107.049 176.715H113.138C113.567 176.715 115.018 176.693 115.412 176.67C115.39 176.883 115.025 180.753 115.025 180.753H102.424L104.351 159.04Z" fill="white"/>
<path d="M127.58 158.047L127.286 158.05L115.651 180.753H120.167L121.802 177.309H129.999L131.021 180.753H135.526L127.58 158.047ZM126.491 167.147C126.632 166.838 126.756 166.457 126.805 166.236C126.806 166.232 126.874 166.232 126.874 166.232C126.896 166.506 126.945 166.831 127.035 167.151C127.267 168.141 128.924 173.637 128.924 173.637H123.558C123.558 173.637 126.433 167.287 126.491 167.147Z" fill="white"/>
<path d="M170.321 176.01C170.893 176.01 171.447 175.918 171.986 175.733C172.525 175.548 173.004 175.24 173.425 174.811C173.845 174.383 174.181 173.824 174.434 173.134C174.686 172.444 174.812 171.603 174.812 170.611C174.812 169.702 174.724 168.883 174.547 168.151C174.371 167.419 174.08 166.793 173.677 166.271C173.273 165.75 172.739 165.35 172.075 165.073C171.41 164.795 170.59 164.656 169.614 164.656H166.789V176.01H170.321ZM170.598 161.325C171.759 161.325 172.84 161.511 173.841 161.881C174.841 162.251 175.708 162.805 176.44 163.546C177.171 164.286 177.743 165.211 178.155 166.321C178.567 167.432 178.774 168.735 178.774 170.232C178.774 171.545 178.605 172.755 178.269 173.865C177.932 174.976 177.424 175.935 176.742 176.742C176.06 177.549 175.211 178.185 174.194 178.647C173.176 179.11 171.977 179.341 170.598 179.341H162.827V161.325H170.598Z" fill="#100F0D"/>
<path d="M189.269 172.957C189.119 173.092 188.929 173.197 188.701 173.272C188.475 173.349 188.231 173.411 187.971 173.462C187.709 173.512 187.436 173.555 187.151 173.588C186.864 173.622 186.579 173.664 186.292 173.714C186.023 173.765 185.757 173.833 185.497 173.916C185.236 174 185.009 174.114 184.816 174.257C184.623 174.4 184.467 174.581 184.349 174.799C184.232 175.018 184.173 175.295 184.173 175.632C184.173 175.951 184.232 176.221 184.349 176.439C184.467 176.658 184.627 176.831 184.829 176.957C185.031 177.083 185.267 177.171 185.535 177.222C185.804 177.272 186.083 177.297 186.368 177.297C187.075 177.297 187.621 177.179 188.008 176.944C188.395 176.709 188.68 176.427 188.867 176.099C189.051 175.771 189.164 175.438 189.207 175.102C189.248 174.766 189.269 174.496 189.269 174.295V172.957ZM180.994 170.308C181.044 169.467 181.255 168.769 181.624 168.214C181.995 167.659 182.465 167.213 183.037 166.877C183.609 166.54 184.253 166.3 184.968 166.157C185.683 166.015 186.401 165.943 187.125 165.943C187.781 165.943 188.445 165.989 189.119 166.082C189.791 166.174 190.405 166.355 190.96 166.624C191.515 166.894 191.969 167.267 192.323 167.747C192.676 168.226 192.852 168.862 192.852 169.652V176.439C192.852 177.028 192.887 177.591 192.953 178.13C193.02 178.668 193.139 179.072 193.307 179.341H189.673C189.607 179.139 189.551 178.933 189.509 178.722C189.467 178.513 189.437 178.298 189.421 178.079C188.849 178.668 188.176 179.081 187.403 179.315C186.628 179.551 185.839 179.669 185.031 179.669C184.408 179.669 183.828 179.594 183.289 179.442C182.752 179.29 182.281 179.055 181.877 178.735C181.473 178.416 181.158 178.012 180.931 177.524C180.704 177.037 180.59 176.456 180.59 175.783C180.59 175.044 180.72 174.433 180.981 173.954C181.242 173.474 181.579 173.092 181.991 172.805C182.403 172.52 182.873 172.305 183.403 172.162C183.933 172.02 184.467 171.906 185.005 171.822C185.544 171.738 186.073 171.67 186.595 171.62C187.117 171.57 187.579 171.494 187.983 171.393C188.387 171.292 188.705 171.145 188.941 170.951C189.177 170.758 189.287 170.476 189.269 170.105C189.269 169.719 189.207 169.412 189.08 169.185C188.955 168.958 188.785 168.782 188.576 168.655C188.365 168.529 188.121 168.445 187.844 168.403C187.567 168.361 187.268 168.34 186.949 168.34C186.241 168.34 185.687 168.491 185.284 168.794C184.88 169.097 184.644 169.601 184.577 170.308H180.994Z" fill="#100F0D"/>
<path d="M198.857 179.341L194.392 166.296H198.151L200.901 175.203H200.952L203.701 166.296H207.259L202.844 179.341H198.857Z" fill="#100F0D"/>
<path d="M212.432 166.296V179.341H208.849V166.296H212.432ZM208.849 164.277V161.325H212.432V164.277H208.849Z" fill="#100F0D"/>
<path d="M224.367 171.229C224.265 170.733 224.092 170.295 223.848 169.917C223.604 169.538 223.289 169.232 222.903 168.996C222.515 168.761 222.028 168.643 221.439 168.643C220.849 168.643 220.353 168.761 219.951 168.996C219.547 169.232 219.223 169.543 218.979 169.929C218.735 170.316 218.559 170.758 218.449 171.255C218.34 171.75 218.285 172.268 218.285 172.805C218.285 173.31 218.344 173.815 218.461 174.32C218.579 174.825 218.768 175.274 219.029 175.67C219.289 176.065 219.619 176.385 220.013 176.628C220.408 176.873 220.884 176.995 221.439 176.995C222.028 176.995 222.52 176.877 222.915 176.641C223.311 176.406 223.625 176.09 223.861 175.695C224.096 175.3 224.265 174.849 224.367 174.345C224.467 173.84 224.517 173.32 224.517 172.781C224.517 172.243 224.467 171.725 224.367 171.229ZM224.517 177.675C224.096 178.382 223.545 178.891 222.865 179.202C222.183 179.513 221.413 179.669 220.556 179.669C219.58 179.669 218.723 179.479 217.981 179.101C217.241 178.722 216.632 178.21 216.153 177.562C215.673 176.914 215.312 176.17 215.068 175.329C214.824 174.488 214.701 173.613 214.701 172.705C214.701 171.831 214.824 170.985 215.068 170.169C215.312 169.353 215.673 168.634 216.153 168.012C216.632 167.389 217.233 166.889 217.957 166.511C218.68 166.132 219.521 165.943 220.48 165.943C221.253 165.943 221.989 166.107 222.688 166.435C223.385 166.763 223.937 167.246 224.341 167.886H224.391V161.325H227.975V179.341H224.568V177.675H224.517Z" fill="#100F0D"/>
<path d="M248.74 179.202C247.881 179.563 247.015 179.745 246.141 179.745C244.761 179.745 243.52 179.505 242.419 179.026C241.317 178.546 240.388 177.886 239.631 177.045C238.873 176.204 238.293 175.215 237.891 174.079C237.487 172.944 237.285 171.721 237.285 170.409C237.285 169.063 237.487 167.814 237.891 166.662C238.293 165.51 238.873 164.505 239.631 163.647C240.388 162.789 241.317 162.116 242.419 161.628C243.52 161.14 244.761 160.897 246.141 160.897C247.065 160.897 247.961 161.035 248.828 161.313C249.695 161.59 250.476 161.998 251.175 162.537C251.872 163.075 252.449 163.739 252.903 164.529C253.357 165.321 253.635 166.229 253.735 167.255H249.951C249.715 166.246 249.26 165.488 248.588 164.984C247.916 164.479 247.1 164.227 246.141 164.227C245.249 164.227 244.492 164.4 243.869 164.745C243.248 165.089 242.743 165.552 242.356 166.132C241.969 166.712 241.688 167.373 241.511 168.113C241.335 168.853 241.245 169.618 241.245 170.409C241.245 171.166 241.335 171.902 241.511 172.617C241.688 173.332 241.969 173.975 242.356 174.547C242.743 175.119 243.248 175.577 243.869 175.922C244.492 176.266 245.249 176.439 246.141 176.439C247.452 176.439 248.467 176.107 249.181 175.443C249.896 174.778 250.312 173.815 250.429 172.554H246.444V169.601H254.013V179.341H251.489L251.087 177.297C250.38 178.205 249.597 178.841 248.74 179.202Z" fill="#100F0D"/>
<path d="M264.724 169.349C264.295 168.878 263.643 168.643 262.768 168.643C262.196 168.643 261.721 168.74 261.343 168.933C260.964 169.127 260.661 169.366 260.433 169.652C260.207 169.938 260.047 170.241 259.955 170.56C259.863 170.88 259.808 171.166 259.791 171.418H265.619C265.451 170.51 265.152 169.82 264.724 169.349ZM260.675 176.212C261.212 176.733 261.985 176.995 262.995 176.995C263.719 176.995 264.341 176.813 264.863 176.451C265.384 176.09 265.703 175.707 265.821 175.304H268.975C268.471 176.868 267.696 177.987 266.653 178.66C265.611 179.333 264.349 179.669 262.869 179.669C261.843 179.669 260.917 179.505 260.093 179.177C259.269 178.849 258.571 178.382 258 177.776C257.427 177.171 256.985 176.448 256.675 175.607C256.364 174.766 256.208 173.84 256.208 172.831C256.208 171.855 256.368 170.948 256.687 170.105C257.007 169.265 257.46 168.538 258.049 167.923C258.639 167.31 259.341 166.826 260.156 166.473C260.972 166.12 261.876 165.943 262.869 165.943C263.98 165.943 264.947 166.157 265.771 166.586C266.595 167.015 267.272 167.591 267.801 168.315C268.332 169.038 268.713 169.862 268.951 170.787C269.185 171.712 269.269 172.68 269.203 173.689H259.791C259.841 174.849 260.135 175.691 260.675 176.212Z" fill="#100F0D"/>
<path d="M269.959 168.693V166.296H272.103V165.287C272.103 164.126 272.465 163.176 273.188 162.436C273.911 161.696 275.005 161.325 276.468 161.325C276.787 161.325 277.108 161.338 277.427 161.364C277.747 161.388 278.059 161.41 278.361 161.427V164.101C277.94 164.05 277.503 164.025 277.048 164.025C276.561 164.025 276.212 164.139 276.001 164.366C275.791 164.593 275.687 164.976 275.687 165.514V166.296H278.159V168.693H275.687V179.341H272.103V168.693H269.959Z" fill="#100F0D"/>
<path d="M277.907 168.693V166.296H280.051V165.287C280.051 164.126 280.413 163.176 281.136 162.436C281.859 161.696 282.952 161.325 284.416 161.325C284.735 161.325 285.056 161.338 285.375 161.364C285.695 161.388 286.007 161.41 286.309 161.427V164.101C285.888 164.05 285.451 164.025 284.996 164.025C284.508 164.025 284.16 164.139 283.949 164.366C283.739 164.593 283.635 164.976 283.635 165.514V166.296H286.107V168.693H283.635V179.341H280.051V168.693H277.907Z" fill="#100F0D"/>
<path d="M295.556 169.349C295.127 168.878 294.476 168.643 293.6 168.643C293.029 168.643 292.553 168.74 292.175 168.933C291.796 169.127 291.493 169.366 291.267 169.652C291.04 169.938 290.88 170.241 290.787 170.56C290.695 170.88 290.64 171.166 290.623 171.418H296.452C296.284 170.51 295.985 169.82 295.556 169.349ZM291.507 176.212C292.044 176.733 292.819 176.995 293.828 176.995C294.551 176.995 295.173 176.813 295.695 176.451C296.216 176.09 296.536 175.707 296.653 175.304H299.808C299.303 176.868 298.529 177.987 297.487 178.66C296.443 179.333 295.181 179.669 293.701 179.669C292.675 179.669 291.751 179.505 290.925 179.177C290.101 178.849 289.404 178.382 288.832 177.776C288.26 177.171 287.819 176.448 287.508 175.607C287.196 174.766 287.04 173.84 287.04 172.831C287.04 171.855 287.2 170.948 287.52 170.105C287.84 169.265 288.293 168.538 288.883 167.923C289.471 167.31 290.173 166.826 290.989 166.473C291.805 166.12 292.709 165.943 293.701 165.943C294.812 165.943 295.779 166.157 296.603 166.586C297.427 167.015 298.104 167.591 298.635 168.315C299.164 169.038 299.547 169.862 299.783 170.787C300.017 171.712 300.101 172.68 300.035 173.689H290.623C290.675 174.849 290.968 175.691 291.507 176.212Z" fill="#100F0D"/>
<path d="M305.561 166.296V168.113H305.636C306.091 167.355 306.679 166.805 307.401 166.46C308.125 166.115 308.865 165.943 309.621 165.943C310.583 165.943 311.367 166.073 311.981 166.334C312.596 166.595 313.08 166.957 313.432 167.419C313.785 167.882 314.033 168.445 314.176 169.11C314.32 169.774 314.393 170.51 314.393 171.317V179.341H310.809V171.973C310.809 170.897 310.64 170.094 310.304 169.563C309.968 169.034 309.371 168.769 308.512 168.769C307.536 168.769 306.831 169.059 306.393 169.639C305.955 170.22 305.736 171.174 305.736 172.503V179.341H302.155V166.296H305.561Z" fill="#100F0D"/>
<path d="M327.536 174.9C327.755 175.321 328.045 175.661 328.407 175.922C328.769 176.183 329.193 176.376 329.681 176.502C330.169 176.628 330.675 176.692 331.195 176.692C331.548 176.692 331.927 176.662 332.331 176.603C332.733 176.545 333.113 176.431 333.465 176.263C333.819 176.095 334.113 175.863 334.348 175.569C334.584 175.274 334.703 174.9 334.703 174.446C334.703 173.958 334.547 173.563 334.235 173.26C333.924 172.957 333.516 172.705 333.011 172.503C332.508 172.301 331.936 172.125 331.296 171.973C330.657 171.822 330.008 171.654 329.353 171.469C328.68 171.3 328.024 171.095 327.385 170.85C326.745 170.607 326.175 170.291 325.669 169.904C325.165 169.517 324.757 169.034 324.447 168.453C324.133 167.873 323.979 167.171 323.979 166.347C323.979 165.422 324.176 164.618 324.572 163.937C324.967 163.255 325.484 162.688 326.123 162.234C326.763 161.779 327.487 161.444 328.293 161.224C329.101 161.006 329.908 160.897 330.716 160.897C331.657 160.897 332.563 161.001 333.428 161.212C334.293 161.422 335.064 161.763 335.736 162.234C336.409 162.705 336.944 163.306 337.34 164.038C337.733 164.77 337.932 165.657 337.932 166.699H334.097C334.064 166.162 333.949 165.716 333.756 165.362C333.563 165.01 333.305 164.732 332.987 164.529C332.667 164.328 332.3 164.185 331.889 164.101C331.476 164.017 331.027 163.975 330.539 163.975C330.22 163.975 329.899 164.009 329.58 164.076C329.26 164.143 328.971 164.261 328.709 164.428C328.449 164.597 328.233 164.808 328.065 165.06C327.897 165.312 327.815 165.632 327.815 166.019C327.815 166.372 327.881 166.658 328.016 166.877C328.151 167.095 328.415 167.297 328.811 167.482C329.205 167.667 329.752 167.852 330.452 168.037C331.148 168.222 332.061 168.458 333.188 168.744C333.524 168.811 333.992 168.933 334.589 169.11C335.185 169.286 335.779 169.568 336.368 169.955C336.956 170.342 337.465 170.859 337.895 171.506C338.323 172.154 338.537 172.983 338.537 173.992C338.537 174.816 338.377 175.581 338.059 176.288C337.737 176.995 337.264 177.605 336.632 178.117C336.003 178.631 335.22 179.029 334.285 179.315C333.352 179.601 332.272 179.745 331.044 179.745C330.052 179.745 329.088 179.622 328.155 179.378C327.221 179.135 326.397 178.752 325.681 178.231C324.967 177.709 324.399 177.045 323.979 176.237C323.559 175.43 323.356 174.471 323.373 173.361H327.208C327.208 173.966 327.317 174.479 327.536 174.9Z" fill="#100F0D"/>
<path d="M346.737 168.643C346.165 168.643 345.685 168.773 345.299 169.034C344.912 169.295 344.597 169.631 344.353 170.044C344.109 170.455 343.937 170.91 343.836 171.405C343.735 171.902 343.684 172.394 343.684 172.882C343.684 173.352 343.735 173.833 343.836 174.32C343.937 174.808 344.101 175.25 344.328 175.644C344.556 176.04 344.861 176.364 345.248 176.615C345.635 176.868 346.107 176.995 346.663 176.995C347.519 176.995 348.179 176.755 348.643 176.275C349.105 175.796 349.396 175.153 349.512 174.345H352.969C352.733 176.078 352.061 177.398 350.952 178.306C349.841 179.214 348.419 179.669 346.687 179.669C345.712 179.669 344.816 179.505 344 179.177C343.183 178.849 342.491 178.391 341.919 177.802C341.345 177.213 340.9 176.511 340.581 175.695C340.261 174.879 340.101 173.983 340.101 173.008C340.101 171.998 340.248 171.061 340.543 170.194C340.837 169.328 341.271 168.579 341.841 167.949C342.413 167.318 343.113 166.826 343.937 166.473C344.761 166.12 345.703 165.943 346.763 165.943C347.536 165.943 348.281 166.044 348.996 166.246C349.711 166.448 350.349 166.755 350.913 167.166C351.476 167.579 351.936 168.092 352.288 168.706C352.641 169.32 352.843 170.047 352.895 170.888H349.387C349.151 169.391 348.268 168.643 346.737 168.643Z" fill="#100F0D"/>
<path d="M358.571 161.325V168.113H358.647C359.101 167.355 359.681 166.805 360.388 166.46C361.095 166.115 361.784 165.943 362.456 165.943C363.416 165.943 364.201 166.073 364.816 166.334C365.429 166.595 365.913 166.957 366.267 167.419C366.62 167.882 366.868 168.445 367.011 169.11C367.155 169.774 367.227 170.51 367.227 171.317V179.341H363.643V171.973C363.643 170.897 363.475 170.094 363.137 169.563C362.801 169.034 362.204 168.769 361.347 168.769C360.371 168.769 359.665 169.059 359.228 169.639C358.789 170.22 358.571 171.174 358.571 172.503V179.341H354.988V161.325H358.571Z" fill="#100F0D"/>
<path d="M373.281 174.358C373.383 174.854 373.555 175.3 373.799 175.695C374.043 176.09 374.367 176.406 374.771 176.641C375.175 176.877 375.677 176.995 376.284 176.995C376.889 176.995 377.397 176.877 377.811 176.641C378.223 176.406 378.551 176.09 378.793 175.695C379.037 175.3 379.211 174.854 379.312 174.358C379.412 173.862 379.463 173.352 379.463 172.831C379.463 172.31 379.412 171.797 379.312 171.292C379.211 170.787 379.037 170.342 378.793 169.955C378.551 169.568 378.223 169.252 377.811 169.009C377.397 168.765 376.889 168.643 376.284 168.643C375.677 168.643 375.175 168.765 374.771 169.009C374.367 169.252 374.043 169.568 373.799 169.955C373.555 170.342 373.383 170.787 373.281 171.292C373.18 171.797 373.129 172.31 373.129 172.831C373.129 173.352 373.18 173.862 373.281 174.358ZM370.027 169.993C370.345 169.144 370.8 168.42 371.389 167.823C371.977 167.226 372.684 166.763 373.508 166.435C374.332 166.107 375.257 165.943 376.284 165.943C377.309 165.943 378.239 166.107 379.071 166.435C379.904 166.763 380.616 167.226 381.204 167.823C381.792 168.42 382.247 169.144 382.565 169.993C382.887 170.842 383.045 171.788 383.045 172.831C383.045 173.874 382.887 174.816 382.565 175.657C382.247 176.498 381.792 177.217 381.204 177.814C380.616 178.412 379.904 178.87 379.071 179.189C378.239 179.509 377.309 179.669 376.284 179.669C375.257 179.669 374.332 179.509 373.508 179.189C372.684 178.87 371.977 178.412 371.389 177.814C370.8 177.217 370.345 176.498 370.027 175.657C369.707 174.816 369.547 173.874 369.547 172.831C369.547 171.788 369.707 170.842 370.027 169.993Z" fill="#100F0D"/>
<path d="M388.696 174.358C388.797 174.854 388.969 175.3 389.215 175.695C389.457 176.09 389.783 176.406 390.185 176.641C390.589 176.877 391.093 176.995 391.699 176.995C392.304 176.995 392.813 176.877 393.227 176.641C393.637 176.406 393.965 176.09 394.209 175.695C394.452 175.3 394.625 174.854 394.728 174.358C394.828 173.862 394.879 173.352 394.879 172.831C394.879 172.31 394.828 171.797 394.728 171.292C394.625 170.787 394.452 170.342 394.209 169.955C393.965 169.568 393.637 169.252 393.227 169.009C392.813 168.765 392.304 168.643 391.699 168.643C391.093 168.643 390.589 168.765 390.185 169.009C389.783 169.252 389.457 169.568 389.215 169.955C388.969 170.342 388.797 170.787 388.696 171.292C388.596 171.797 388.545 172.31 388.545 172.831C388.545 173.352 388.596 173.862 388.696 174.358ZM385.443 169.993C385.761 169.144 386.216 168.42 386.804 167.823C387.393 167.226 388.1 166.763 388.924 166.435C389.747 166.107 390.673 165.943 391.699 165.943C392.725 165.943 393.655 166.107 394.487 166.435C395.32 166.763 396.031 167.226 396.619 167.823C397.208 168.42 397.663 169.144 397.981 169.993C398.301 170.842 398.46 171.788 398.46 172.831C398.46 173.874 398.301 174.816 397.981 175.657C397.663 176.498 397.208 177.217 396.619 177.814C396.031 178.412 395.32 178.87 394.487 179.189C393.655 179.509 392.725 179.669 391.699 179.669C390.673 179.669 389.747 179.509 388.924 179.189C388.1 178.87 387.393 178.412 386.804 177.814C386.216 177.217 385.761 176.498 385.443 175.657C385.121 174.816 384.961 173.874 384.961 172.831C384.961 171.788 385.121 170.842 385.443 169.993Z" fill="#100F0D"/>
<path d="M404.467 161.325V179.341H400.884V161.325H404.467Z" fill="#100F0D"/>
<path d="M417.636 174.358C417.737 174.854 417.909 175.3 418.155 175.695C418.397 176.09 418.723 176.406 419.125 176.641C419.529 176.877 420.033 176.995 420.639 176.995C421.244 176.995 421.753 176.877 422.167 176.641C422.577 176.406 422.905 176.09 423.149 175.695C423.393 175.3 423.565 174.854 423.668 174.358C423.768 173.862 423.819 173.352 423.819 172.831C423.819 172.31 423.768 171.797 423.668 171.292C423.565 170.787 423.393 170.342 423.149 169.955C422.905 169.568 422.577 169.252 422.167 169.009C421.753 168.765 421.244 168.643 420.639 168.643C420.033 168.643 419.529 168.765 419.125 169.009C418.723 169.252 418.397 169.568 418.155 169.955C417.909 170.342 417.737 170.787 417.636 171.292C417.536 171.797 417.485 172.31 417.485 172.831C417.485 173.352 417.536 173.862 417.636 174.358ZM414.383 169.993C414.701 169.144 415.156 168.42 415.744 167.823C416.333 167.226 417.04 166.763 417.864 166.435C418.687 166.107 419.613 165.943 420.639 165.943C421.665 165.943 422.595 166.107 423.427 166.435C424.26 166.763 424.971 167.226 425.56 167.823C426.148 168.42 426.603 169.144 426.921 169.993C427.241 170.842 427.4 171.788 427.4 172.831C427.4 173.874 427.241 174.816 426.921 175.657C426.603 176.498 426.148 177.217 425.56 177.814C424.971 178.412 424.26 178.87 423.427 179.189C422.595 179.509 421.665 179.669 420.639 179.669C419.613 179.669 418.687 179.509 417.864 179.189C417.04 178.87 416.333 178.412 415.744 177.814C415.156 177.217 414.701 176.498 414.383 175.657C414.063 174.816 413.901 173.874 413.901 172.831C413.901 171.788 414.063 170.842 414.383 169.993Z" fill="#100F0D"/>
<path d="M428.36 168.693V166.296H430.505V165.287C430.505 164.126 430.867 163.176 431.589 162.436C432.313 161.696 433.407 161.325 434.869 161.325C435.189 161.325 435.508 161.338 435.829 161.364C436.148 161.388 436.459 161.41 436.763 161.427V164.101C436.341 164.05 435.904 164.025 435.451 164.025C434.961 164.025 434.613 164.139 434.403 164.366C434.192 164.593 434.088 164.976 434.088 165.514V166.296H436.561V168.693H434.088V179.341H430.505V168.693H428.36Z" fill="#100F0D"/>
<path d="M451.095 161.325L455.308 173.714H455.357L459.344 161.325H464.921V179.341H461.212V166.574H461.161L456.745 179.341H453.692L449.277 166.699H449.228V179.341H445.517V161.325H451.095Z" fill="#100F0D"/>
<path d="M475.908 169.349C475.48 168.878 474.828 168.643 473.952 168.643C473.381 168.643 472.905 168.74 472.527 168.933C472.149 169.127 471.845 169.366 471.619 169.652C471.392 169.938 471.231 170.241 471.14 170.56C471.047 170.88 470.992 171.166 470.976 171.418H476.804C476.636 170.51 476.337 169.82 475.908 169.349ZM471.859 176.212C472.396 176.733 473.171 176.995 474.18 176.995C474.903 176.995 475.525 176.813 476.048 176.451C476.568 176.09 476.888 175.707 477.007 175.304H480.16C479.656 176.868 478.881 177.987 477.839 178.66C476.795 179.333 475.533 179.669 474.055 179.669C473.028 179.669 472.103 179.505 471.279 179.177C470.453 178.849 469.756 178.382 469.184 177.776C468.612 177.171 468.171 176.448 467.859 175.607C467.548 174.766 467.393 173.84 467.393 172.831C467.393 171.855 467.553 170.948 467.872 170.105C468.191 169.265 468.645 168.538 469.235 167.923C469.824 167.31 470.525 166.826 471.341 166.473C472.157 166.12 473.061 165.943 474.055 165.943C475.164 165.943 476.131 166.157 476.955 166.586C477.78 167.015 478.456 167.591 478.987 168.315C479.516 169.038 479.899 169.862 480.135 170.787C480.371 171.712 480.453 172.68 480.388 173.689H470.976C471.025 174.849 471.32 175.691 471.859 176.212Z" fill="#100F0D"/>
<path d="M491.616 171.229C491.513 170.733 491.341 170.295 491.099 169.917C490.853 169.538 490.539 169.232 490.152 168.996C489.765 168.761 489.277 168.643 488.688 168.643C488.1 168.643 487.604 168.761 487.2 168.996C486.796 169.232 486.472 169.543 486.229 169.929C485.984 170.316 485.808 170.758 485.699 171.255C485.589 171.75 485.535 172.268 485.535 172.805C485.535 173.31 485.593 173.815 485.711 174.32C485.829 174.825 486.017 175.274 486.279 175.67C486.54 176.065 486.867 176.385 487.263 176.628C487.659 176.873 488.133 176.995 488.688 176.995C489.277 176.995 489.769 176.877 490.165 176.641C490.56 176.406 490.875 176.09 491.111 175.695C491.345 175.3 491.513 174.849 491.616 174.345C491.716 173.84 491.767 173.32 491.767 172.781C491.767 172.243 491.716 171.725 491.616 171.229ZM491.767 177.675C491.345 178.382 490.795 178.891 490.115 179.202C489.433 179.513 488.664 179.669 487.805 179.669C486.829 179.669 485.972 179.479 485.231 179.101C484.492 178.722 483.881 178.21 483.401 177.562C482.923 176.914 482.561 176.17 482.317 175.329C482.073 174.488 481.952 173.613 481.952 172.705C481.952 171.831 482.073 170.985 482.317 170.169C482.561 169.353 482.923 168.634 483.401 168.012C483.881 167.389 484.483 166.889 485.207 166.511C485.929 166.132 486.771 165.943 487.729 165.943C488.504 165.943 489.239 166.107 489.937 166.435C490.635 166.763 491.185 167.246 491.589 167.886H491.64V161.325H495.224V179.341H491.817V177.675H491.767Z" fill="#100F0D"/>
<path d="M501.608 166.296V179.341H498.024V166.296H501.608ZM498.024 164.277V161.325H501.608V164.277H498.024Z" fill="#100F0D"/>
<path d="M510.665 168.643C510.092 168.643 509.613 168.773 509.227 169.034C508.84 169.295 508.524 169.631 508.281 170.044C508.036 170.455 507.864 170.91 507.763 171.405C507.663 171.902 507.612 172.394 507.612 172.882C507.612 173.352 507.663 173.833 507.763 174.32C507.864 174.808 508.028 175.25 508.255 175.644C508.483 176.04 508.788 176.364 509.175 176.615C509.563 176.868 510.033 176.995 510.589 176.995C511.447 176.995 512.107 176.755 512.569 176.275C513.032 175.796 513.323 175.153 513.44 174.345H516.896C516.661 176.078 515.988 177.398 514.879 178.306C513.768 179.214 512.345 179.669 510.615 179.669C509.639 179.669 508.743 179.505 507.927 179.177C507.111 178.849 506.417 178.391 505.845 177.802C505.273 177.213 504.828 176.511 504.508 175.695C504.188 174.879 504.028 173.983 504.028 173.008C504.028 171.998 504.175 171.061 504.469 170.194C504.764 169.328 505.197 168.579 505.769 167.949C506.34 167.318 507.04 166.826 507.864 166.473C508.688 166.12 509.629 165.943 510.689 165.943C511.463 165.943 512.208 166.044 512.923 166.246C513.637 166.448 514.277 166.755 514.84 167.166C515.403 167.579 515.863 168.092 516.216 168.706C516.568 169.32 516.771 170.047 516.821 170.888H513.313C513.077 169.391 512.195 168.643 510.665 168.643Z" fill="#100F0D"/>
<path d="M522.6 166.296V179.341H519.016V166.296H522.6ZM519.016 164.277V161.325H522.6V164.277H519.016Z" fill="#100F0D"/>
<path d="M528.831 166.296V168.113H528.907C529.36 167.355 529.949 166.805 530.673 166.46C531.396 166.115 532.136 165.943 532.893 165.943C533.852 165.943 534.637 166.073 535.252 166.334C535.865 166.595 536.349 166.957 536.703 167.419C537.057 167.882 537.304 168.445 537.448 169.11C537.591 169.774 537.663 170.51 537.663 171.317V179.341H534.079V171.973C534.079 170.897 533.911 170.094 533.573 169.563C533.237 169.034 532.64 168.769 531.784 168.769C530.807 168.769 530.101 169.059 529.664 169.639C529.227 170.22 529.007 171.174 529.007 172.503V179.341H525.424V166.296H528.831Z" fill="#100F0D"/>
<path d="M548.272 169.349C547.843 168.878 547.191 168.643 546.316 168.643C545.744 168.643 545.269 168.74 544.891 168.933C544.512 169.127 544.209 169.366 543.983 169.652C543.755 169.938 543.595 170.241 543.504 170.56C543.409 170.88 543.355 171.166 543.34 171.418H549.168C549 170.51 548.7 169.82 548.272 169.349ZM544.223 176.212C544.76 176.733 545.533 176.995 546.544 176.995C547.267 176.995 547.889 176.813 548.411 176.451C548.932 176.09 549.251 175.707 549.369 175.304H552.523C552.019 176.868 551.244 177.987 550.201 178.66C549.159 179.333 547.896 179.669 546.417 179.669C545.392 179.669 544.465 179.505 543.641 179.177C542.817 178.849 542.119 178.382 541.548 177.776C540.975 177.171 540.533 176.448 540.223 175.607C539.911 174.766 539.756 173.84 539.756 172.831C539.756 171.855 539.916 170.948 540.235 170.105C540.555 169.265 541.008 168.538 541.599 167.923C542.187 167.31 542.889 166.826 543.705 166.473C544.52 166.12 545.424 165.943 546.417 165.943C547.527 165.943 548.495 166.157 549.319 166.586C550.143 167.015 550.82 167.591 551.349 168.315C551.88 169.038 552.263 169.862 552.499 170.787C552.733 171.712 552.817 172.68 552.751 173.689H543.34C543.389 174.849 543.683 175.691 544.223 176.212Z" fill="#100F0D"/>
</g>
<mask id="path-42-inside-1_1_92" fill="white">
<path d="M117 295H1317V405H117V295Z"/>
</mask>
<path d="M117 295H1317V405H117V295Z" fill="black"/>
<path d="M1317 397H117V413H1317V397Z" fill="#2874AF" mask="url(#path-42-inside-1_1_92)"/>
<path d="M165.318 340.818C165.114 339.091 164.284 337.75 162.83 336.795C161.375 335.841 159.591 335.364 157.477 335.364C155.932 335.364 154.58 335.614 153.42 336.114C152.273 336.614 151.375 337.301 150.727 338.176C150.091 339.051 149.773 340.045 149.773 341.159C149.773 342.091 149.994 342.892 150.438 343.562C150.892 344.222 151.472 344.773 152.176 345.216C152.881 345.648 153.619 346.006 154.392 346.29C155.165 346.562 155.875 346.784 156.523 346.955L160.068 347.909C160.977 348.148 161.989 348.477 163.102 348.898C164.227 349.318 165.301 349.892 166.324 350.619C167.358 351.335 168.21 352.256 168.881 353.381C169.551 354.506 169.886 355.886 169.886 357.523C169.886 359.409 169.392 361.114 168.403 362.636C167.426 364.159 165.994 365.369 164.108 366.267C162.233 367.165 159.955 367.614 157.273 367.614C154.773 367.614 152.608 367.21 150.778 366.403C148.96 365.597 147.528 364.472 146.483 363.028C145.449 361.585 144.864 359.909 144.727 358H149.091C149.205 359.318 149.648 360.409 150.42 361.273C151.205 362.125 152.193 362.761 153.386 363.182C154.591 363.591 155.886 363.795 157.273 363.795C158.886 363.795 160.335 363.534 161.619 363.011C162.903 362.477 163.92 361.739 164.67 360.795C165.42 359.841 165.795 358.727 165.795 357.455C165.795 356.295 165.472 355.352 164.824 354.625C164.176 353.898 163.324 353.307 162.267 352.852C161.21 352.398 160.068 352 158.841 351.659L154.545 350.432C151.818 349.648 149.659 348.528 148.068 347.074C146.477 345.619 145.682 343.716 145.682 341.364C145.682 339.409 146.21 337.705 147.267 336.25C148.335 334.784 149.767 333.648 151.562 332.841C153.369 332.023 155.386 331.614 157.614 331.614C159.864 331.614 161.864 332.017 163.614 332.824C165.364 333.619 166.75 334.71 167.773 336.097C168.807 337.483 169.352 339.057 169.409 340.818H165.318ZM187.268 367.545C184.746 367.545 182.57 366.989 180.74 365.875C178.922 364.75 177.518 363.182 176.53 361.17C175.553 359.148 175.064 356.795 175.064 354.114C175.064 351.432 175.553 349.068 176.53 347.023C177.518 344.966 178.893 343.364 180.655 342.216C182.428 341.057 184.496 340.477 186.859 340.477C188.223 340.477 189.57 340.705 190.899 341.159C192.229 341.614 193.439 342.352 194.53 343.375C195.621 344.386 196.49 345.727 197.138 347.398C197.786 349.068 198.109 351.125 198.109 353.568V355.273H177.928V351.795H194.018C194.018 350.318 193.723 349 193.132 347.841C192.553 346.682 191.723 345.767 190.643 345.097C189.575 344.426 188.314 344.091 186.859 344.091C185.257 344.091 183.871 344.489 182.7 345.284C181.541 346.068 180.649 347.091 180.024 348.352C179.399 349.614 179.087 350.966 179.087 352.409V354.727C179.087 356.705 179.428 358.381 180.109 359.756C180.803 361.119 181.763 362.159 182.99 362.875C184.217 363.58 185.643 363.932 187.268 363.932C188.325 363.932 189.28 363.784 190.132 363.489C190.996 363.182 191.74 362.727 192.365 362.125C192.99 361.511 193.473 360.75 193.814 359.841L197.7 360.932C197.291 362.25 196.604 363.409 195.638 364.409C194.672 365.398 193.479 366.17 192.058 366.727C190.638 367.273 189.041 367.545 187.268 367.545ZM211.933 367.614C210.274 367.614 208.768 367.301 207.416 366.676C206.064 366.04 204.99 365.125 204.195 363.932C203.399 362.727 203.001 361.273 203.001 359.568C203.001 358.068 203.297 356.852 203.888 355.92C204.479 354.977 205.268 354.239 206.257 353.705C207.246 353.17 208.337 352.773 209.53 352.511C210.734 352.239 211.945 352.023 213.161 351.864C214.751 351.659 216.041 351.506 217.03 351.403C218.03 351.29 218.757 351.102 219.212 350.841C219.678 350.58 219.911 350.125 219.911 349.477V349.341C219.911 347.659 219.45 346.352 218.53 345.42C217.621 344.489 216.24 344.023 214.388 344.023C212.467 344.023 210.962 344.443 209.871 345.284C208.78 346.125 208.013 347.023 207.57 347.977L203.751 346.614C204.433 345.023 205.342 343.784 206.479 342.898C207.626 342 208.876 341.375 210.229 341.023C211.592 340.659 212.933 340.477 214.251 340.477C215.092 340.477 216.058 340.58 217.149 340.784C218.251 340.977 219.314 341.381 220.337 341.994C221.371 342.608 222.229 343.534 222.911 344.773C223.592 346.011 223.933 347.67 223.933 349.75V367H219.911V363.455H219.706C219.433 364.023 218.979 364.631 218.342 365.278C217.706 365.926 216.859 366.477 215.803 366.932C214.746 367.386 213.456 367.614 211.933 367.614ZM212.547 364C214.138 364 215.479 363.688 216.57 363.062C217.672 362.438 218.501 361.631 219.058 360.642C219.626 359.653 219.911 358.614 219.911 357.523V353.841C219.74 354.045 219.365 354.233 218.786 354.403C218.217 354.562 217.558 354.705 216.808 354.83C216.07 354.943 215.348 355.045 214.643 355.136C213.95 355.216 213.388 355.284 212.956 355.341C211.911 355.477 210.933 355.699 210.024 356.006C209.126 356.301 208.399 356.75 207.842 357.352C207.297 357.943 207.024 358.75 207.024 359.773C207.024 361.17 207.541 362.227 208.575 362.943C209.621 363.648 210.945 364 212.547 364ZM231.276 367V340.818H235.162V344.773H235.435C235.912 343.477 236.776 342.426 238.026 341.619C239.276 340.812 240.685 340.409 242.253 340.409C242.548 340.409 242.918 340.415 243.361 340.426C243.804 340.437 244.139 340.455 244.366 340.477V344.568C244.23 344.534 243.918 344.483 243.429 344.415C242.952 344.335 242.446 344.295 241.912 344.295C240.639 344.295 239.503 344.562 238.503 345.097C237.514 345.619 236.73 346.347 236.151 347.278C235.582 348.199 235.298 349.25 235.298 350.432V367H231.276ZM258.974 367.545C256.52 367.545 254.406 366.966 252.634 365.807C250.861 364.648 249.497 363.051 248.543 361.017C247.588 358.983 247.111 356.659 247.111 354.045C247.111 351.386 247.599 349.04 248.577 347.006C249.565 344.96 250.94 343.364 252.702 342.216C254.474 341.057 256.543 340.477 258.906 340.477C260.747 340.477 262.406 340.818 263.884 341.5C265.361 342.182 266.571 343.136 267.514 344.364C268.457 345.591 269.043 347.023 269.27 348.659H265.247C264.94 347.466 264.259 346.409 263.202 345.489C262.156 344.557 260.747 344.091 258.974 344.091C257.406 344.091 256.031 344.5 254.849 345.318C253.679 346.125 252.764 347.267 252.105 348.744C251.457 350.21 251.134 351.932 251.134 353.909C251.134 355.932 251.452 357.693 252.088 359.193C252.736 360.693 253.645 361.858 254.815 362.688C255.997 363.517 257.384 363.932 258.974 363.932C260.02 363.932 260.969 363.75 261.821 363.386C262.673 363.023 263.395 362.5 263.986 361.818C264.577 361.136 264.997 360.318 265.247 359.364H269.27C269.043 360.909 268.48 362.301 267.582 363.54C266.696 364.767 265.52 365.744 264.054 366.472C262.599 367.188 260.906 367.545 258.974 367.545ZM279.173 351.25V367H275.151V332.091H279.173V344.909H279.514C280.128 343.557 281.048 342.483 282.276 341.688C283.514 340.881 285.162 340.477 287.219 340.477C289.003 340.477 290.565 340.835 291.906 341.551C293.247 342.256 294.287 343.341 295.026 344.807C295.776 346.261 296.151 348.114 296.151 350.364V367H292.128V350.636C292.128 348.557 291.588 346.949 290.509 345.812C289.44 344.665 287.957 344.091 286.06 344.091C284.741 344.091 283.56 344.369 282.514 344.926C281.48 345.483 280.662 346.295 280.06 347.364C279.469 348.432 279.173 349.727 279.173 351.25ZM317.555 367V332.091H321.578V344.977H321.919C322.214 344.523 322.624 343.943 323.146 343.239C323.68 342.523 324.442 341.886 325.43 341.33C326.43 340.761 327.783 340.477 329.487 340.477C331.692 340.477 333.635 341.028 335.317 342.131C336.999 343.233 338.311 344.795 339.254 346.818C340.197 348.841 340.669 351.227 340.669 353.977C340.669 356.75 340.197 359.153 339.254 361.188C338.311 363.21 337.004 364.778 335.334 365.892C333.663 366.994 331.737 367.545 329.555 367.545C327.874 367.545 326.527 367.267 325.516 366.71C324.504 366.142 323.726 365.5 323.18 364.784C322.635 364.057 322.214 363.455 321.919 362.977H321.442V367H317.555ZM321.51 353.909C321.51 355.886 321.8 357.631 322.379 359.142C322.959 360.642 323.805 361.818 324.919 362.67C326.033 363.511 327.396 363.932 329.01 363.932C330.692 363.932 332.095 363.489 333.22 362.602C334.357 361.705 335.209 360.5 335.777 358.989C336.357 357.466 336.646 355.773 336.646 353.909C336.646 352.068 336.362 350.409 335.794 348.932C335.237 347.443 334.391 346.267 333.254 345.403C332.129 344.528 330.714 344.091 329.01 344.091C327.374 344.091 325.999 344.506 324.885 345.335C323.771 346.153 322.93 347.301 322.362 348.778C321.794 350.244 321.51 351.955 321.51 353.909ZM348.476 376.818C347.794 376.818 347.186 376.761 346.652 376.648C346.118 376.545 345.749 376.443 345.544 376.341L346.567 372.795C347.544 373.045 348.408 373.136 349.158 373.068C349.908 373 350.572 372.665 351.152 372.062C351.743 371.472 352.283 370.511 352.771 369.182L353.521 367.136L343.839 340.818H348.203L355.43 361.682H355.703L362.93 340.818H367.294L356.18 370.818C355.68 372.17 355.061 373.29 354.322 374.176C353.584 375.074 352.726 375.739 351.749 376.17C350.783 376.602 349.692 376.818 348.476 376.818ZM389.854 357.455L389.786 352.477H390.604L402.058 340.818H407.036L394.831 353.159H394.49L389.854 357.455ZM386.104 367V332.091H390.126V367H386.104ZM402.74 367L392.513 354.045L395.376 351.25L407.854 367H402.74ZM422.112 367.545C419.589 367.545 417.413 366.989 415.584 365.875C413.766 364.75 412.362 363.182 411.374 361.17C410.396 359.148 409.908 356.795 409.908 354.114C409.908 351.432 410.396 349.068 411.374 347.023C412.362 344.966 413.737 343.364 415.499 342.216C417.271 341.057 419.339 340.477 421.703 340.477C423.067 340.477 424.413 340.705 425.743 341.159C427.072 341.614 428.283 342.352 429.374 343.375C430.464 344.386 431.334 345.727 431.982 347.398C432.629 349.068 432.953 351.125 432.953 353.568V355.273H412.771V351.795H428.862C428.862 350.318 428.567 349 427.976 347.841C427.396 346.682 426.567 345.767 425.487 345.097C424.419 344.426 423.158 344.091 421.703 344.091C420.101 344.091 418.714 344.489 417.544 345.284C416.385 346.068 415.493 347.091 414.868 348.352C414.243 349.614 413.93 350.966 413.93 352.409V354.727C413.93 356.705 414.271 358.381 414.953 359.756C415.646 361.119 416.607 362.159 417.834 362.875C419.061 363.58 420.487 363.932 422.112 363.932C423.169 363.932 424.124 363.784 424.976 363.489C425.839 363.182 426.584 362.727 427.209 362.125C427.834 361.511 428.317 360.75 428.658 359.841L432.544 360.932C432.135 362.25 431.447 363.409 430.482 364.409C429.516 365.398 428.322 366.17 426.902 366.727C425.482 367.273 423.885 367.545 422.112 367.545ZM440.866 376.818C440.185 376.818 439.577 376.761 439.043 376.648C438.509 376.545 438.139 376.443 437.935 376.341L438.957 372.795C439.935 373.045 440.798 373.136 441.548 373.068C442.298 373 442.963 372.665 443.543 372.062C444.134 371.472 444.673 370.511 445.162 369.182L445.912 367.136L436.23 340.818H440.594L447.821 361.682H448.094L455.321 340.818H459.685L448.571 370.818C448.071 372.17 447.452 373.29 446.713 374.176C445.974 375.074 445.116 375.739 444.139 376.17C443.173 376.602 442.082 376.818 440.866 376.818ZM470.926 367L462.949 340.818H467.176L472.835 360.864H473.108L478.699 340.818H482.994L488.517 360.795H488.79L494.449 340.818H498.676L490.699 367H486.744L481.017 346.886H480.608L474.881 367H470.926ZM513.74 367.545C511.376 367.545 509.303 366.983 507.518 365.858C505.746 364.733 504.359 363.159 503.359 361.136C502.371 359.114 501.876 356.75 501.876 354.045C501.876 351.318 502.371 348.937 503.359 346.903C504.359 344.869 505.746 343.29 507.518 342.165C509.303 341.04 511.376 340.477 513.74 340.477C516.104 340.477 518.172 341.04 519.945 342.165C521.729 343.29 523.115 344.869 524.104 346.903C525.104 348.937 525.604 351.318 525.604 354.045C525.604 356.75 525.104 359.114 524.104 361.136C523.115 363.159 521.729 364.733 519.945 365.858C518.172 366.983 516.104 367.545 513.74 367.545ZM513.74 363.932C515.536 363.932 517.013 363.472 518.172 362.551C519.331 361.631 520.189 360.42 520.746 358.92C521.303 357.42 521.581 355.795 521.581 354.045C521.581 352.295 521.303 350.665 520.746 349.153C520.189 347.642 519.331 346.42 518.172 345.489C517.013 344.557 515.536 344.091 513.74 344.091C511.945 344.091 510.467 344.557 509.308 345.489C508.149 346.42 507.291 347.642 506.734 349.153C506.178 350.665 505.899 352.295 505.899 354.045C505.899 355.795 506.178 357.42 506.734 358.92C507.291 360.42 508.149 361.631 509.308 362.551C510.467 363.472 511.945 363.932 513.74 363.932ZM531.744 367V340.818H535.631V344.773H535.903C536.381 343.477 537.244 342.426 538.494 341.619C539.744 340.812 541.153 340.409 542.722 340.409C543.017 340.409 543.386 340.415 543.83 340.426C544.273 340.437 544.608 340.455 544.835 340.477V344.568C544.699 344.534 544.386 344.483 543.898 344.415C543.42 344.335 542.915 344.295 542.381 344.295C541.108 344.295 539.972 344.562 538.972 345.097C537.983 345.619 537.199 346.347 536.619 347.278C536.051 348.199 535.767 349.25 535.767 350.432V367H531.744ZM558.693 367.545C556.511 367.545 554.585 366.994 552.915 365.892C551.244 364.778 549.938 363.21 548.994 361.188C548.051 359.153 547.58 356.75 547.58 353.977C547.58 351.227 548.051 348.841 548.994 346.818C549.938 344.795 551.25 343.233 552.932 342.131C554.614 341.028 556.557 340.477 558.761 340.477C560.466 340.477 561.813 340.761 562.801 341.33C563.801 341.886 564.563 342.523 565.085 343.239C565.619 343.943 566.034 344.523 566.33 344.977H566.67V332.091H570.693V367H566.807V362.977H566.33C566.034 363.455 565.614 364.057 565.068 364.784C564.523 365.5 563.744 366.142 562.733 366.71C561.722 367.267 560.375 367.545 558.693 367.545ZM559.239 363.932C560.852 363.932 562.216 363.511 563.33 362.67C564.443 361.818 565.29 360.642 565.869 359.142C566.449 357.631 566.739 355.886 566.739 353.909C566.739 351.955 566.455 350.244 565.886 348.778C565.318 347.301 564.477 346.153 563.364 345.335C562.25 344.506 560.875 344.091 559.239 344.091C557.534 344.091 556.114 344.528 554.977 345.403C553.852 346.267 553.006 347.443 552.438 348.932C551.881 350.409 551.602 352.068 551.602 353.909C551.602 355.773 551.886 357.466 552.455 358.989C553.034 360.5 553.886 361.705 555.011 362.602C556.148 363.489 557.557 363.932 559.239 363.932ZM602.756 367.545C600.392 367.545 598.318 366.983 596.534 365.858C594.761 364.733 593.375 363.159 592.375 361.136C591.386 359.114 590.892 356.75 590.892 354.045C590.892 351.318 591.386 348.937 592.375 346.903C593.375 344.869 594.761 343.29 596.534 342.165C598.318 341.04 600.392 340.477 602.756 340.477C605.119 340.477 607.188 341.04 608.96 342.165C610.744 343.29 612.131 344.869 613.119 346.903C614.119 348.937 614.619 351.318 614.619 354.045C614.619 356.75 614.119 359.114 613.119 361.136C612.131 363.159 610.744 364.733 608.96 365.858C607.188 366.983 605.119 367.545 602.756 367.545ZM602.756 363.932C604.551 363.932 606.028 363.472 607.188 362.551C608.347 361.631 609.205 360.42 609.761 358.92C610.318 357.42 610.597 355.795 610.597 354.045C610.597 352.295 610.318 350.665 609.761 349.153C609.205 347.642 608.347 346.42 607.188 345.489C606.028 344.557 604.551 344.091 602.756 344.091C600.96 344.091 599.483 344.557 598.324 345.489C597.165 346.42 596.307 347.642 595.75 349.153C595.193 350.665 594.915 352.295 594.915 354.045C594.915 355.795 595.193 357.42 595.75 358.92C596.307 360.42 597.165 361.631 598.324 362.551C599.483 363.472 600.96 363.932 602.756 363.932ZM620.76 367V340.818H624.646V344.773H624.919C625.396 343.477 626.26 342.426 627.51 341.619C628.76 340.812 630.169 340.409 631.737 340.409C632.033 340.409 632.402 340.415 632.845 340.426C633.288 340.437 633.624 340.455 633.851 340.477V344.568C633.714 344.534 633.402 344.483 632.913 344.415C632.436 344.335 631.93 344.295 631.396 344.295C630.124 344.295 628.987 344.562 627.987 345.097C626.999 345.619 626.214 346.347 625.635 347.278C625.067 348.199 624.783 349.25 624.783 350.432V367H620.76ZM652.119 376.818V340.818H656.006V344.977H656.483C656.778 344.523 657.188 343.943 657.71 343.239C658.244 342.523 659.006 341.886 659.994 341.33C660.994 340.761 662.347 340.477 664.051 340.477C666.256 340.477 668.199 341.028 669.881 342.131C671.563 343.233 672.875 344.795 673.818 346.818C674.761 348.841 675.233 351.227 675.233 353.977C675.233 356.75 674.761 359.153 673.818 361.188C672.875 363.21 671.568 364.778 669.898 365.892C668.227 366.994 666.301 367.545 664.119 367.545C662.438 367.545 661.091 367.267 660.08 366.71C659.068 366.142 658.29 365.5 657.744 364.784C657.199 364.057 656.778 363.455 656.483 362.977H656.142V376.818H652.119ZM656.074 353.909C656.074 355.886 656.364 357.631 656.943 359.142C657.523 360.642 658.369 361.818 659.483 362.67C660.597 363.511 661.96 363.932 663.574 363.932C665.256 363.932 666.659 363.489 667.784 362.602C668.92 361.705 669.773 360.5 670.341 358.989C670.92 357.466 671.21 355.773 671.21 353.909C671.21 352.068 670.926 350.409 670.358 348.932C669.801 347.443 668.955 346.267 667.818 345.403C666.693 344.528 665.278 344.091 663.574 344.091C661.938 344.091 660.563 344.506 659.449 345.335C658.335 346.153 657.494 347.301 656.926 348.778C656.358 350.244 656.074 351.955 656.074 353.909ZM685.392 351.25V367H681.369V332.091H685.392V344.909H685.733C686.347 343.557 687.267 342.483 688.494 341.688C689.733 340.881 691.381 340.477 693.438 340.477C695.222 340.477 696.784 340.835 698.125 341.551C699.466 342.256 700.506 343.341 701.244 344.807C701.994 346.261 702.369 348.114 702.369 350.364V367H698.347V350.636C698.347 348.557 697.807 346.949 696.727 345.812C695.659 344.665 694.176 344.091 692.278 344.091C690.96 344.091 689.778 344.369 688.733 344.926C687.699 345.483 686.881 346.295 686.278 347.364C685.688 348.432 685.392 349.727 685.392 351.25ZM709.729 367V340.818H713.615V344.773H713.888C714.365 343.477 715.229 342.426 716.479 341.619C717.729 340.812 719.138 340.409 720.706 340.409C721.001 340.409 721.371 340.415 721.814 340.426C722.257 340.437 722.592 340.455 722.82 340.477V344.568C722.683 344.534 722.371 344.483 721.882 344.415C721.405 344.335 720.899 344.295 720.365 344.295C719.092 344.295 717.956 344.562 716.956 345.097C715.967 345.619 715.183 346.347 714.604 347.278C714.036 348.199 713.751 349.25 713.751 350.432V367H709.729ZM735.293 367.614C733.634 367.614 732.128 367.301 730.776 366.676C729.423 366.04 728.349 365.125 727.554 363.932C726.759 362.727 726.361 361.273 726.361 359.568C726.361 358.068 726.656 356.852 727.247 355.92C727.838 354.977 728.628 354.239 729.616 353.705C730.605 353.17 731.696 352.773 732.889 352.511C734.094 352.239 735.304 352.023 736.52 351.864C738.111 351.659 739.401 351.506 740.389 351.403C741.389 351.29 742.116 351.102 742.571 350.841C743.037 350.58 743.27 350.125 743.27 349.477V349.341C743.27 347.659 742.81 346.352 741.889 345.42C740.98 344.489 739.599 344.023 737.747 344.023C735.827 344.023 734.321 344.443 733.23 345.284C732.139 346.125 731.372 347.023 730.929 347.977L727.111 346.614C727.793 345.023 728.702 343.784 729.838 342.898C730.986 342 732.236 341.375 733.588 341.023C734.952 340.659 736.293 340.477 737.611 340.477C738.452 340.477 739.418 340.58 740.509 340.784C741.611 340.977 742.673 341.381 743.696 341.994C744.73 342.608 745.588 343.534 746.27 344.773C746.952 346.011 747.293 347.67 747.293 349.75V367H743.27V363.455H743.065C742.793 364.023 742.338 364.631 741.702 365.278C741.065 365.926 740.219 366.477 739.162 366.932C738.105 367.386 736.815 367.614 735.293 367.614ZM735.906 364C737.497 364 738.838 363.688 739.929 363.062C741.031 362.438 741.861 361.631 742.418 360.642C742.986 359.653 743.27 358.614 743.27 357.523V353.841C743.099 354.045 742.724 354.233 742.145 354.403C741.577 354.562 740.918 354.705 740.168 354.83C739.429 354.943 738.707 355.045 738.003 355.136C737.31 355.216 736.747 355.284 736.315 355.341C735.27 355.477 734.293 355.699 733.384 356.006C732.486 356.301 731.759 356.75 731.202 357.352C730.656 357.943 730.384 358.75 730.384 359.773C730.384 361.17 730.901 362.227 731.935 362.943C732.98 363.648 734.304 364 735.906 364ZM773.18 346.682L769.567 347.705C769.339 347.102 769.004 346.517 768.561 345.949C768.129 345.369 767.538 344.892 766.788 344.517C766.038 344.142 765.078 343.955 763.908 343.955C762.305 343.955 760.97 344.324 759.902 345.062C758.845 345.79 758.317 346.716 758.317 347.841C758.317 348.841 758.68 349.631 759.408 350.21C760.135 350.79 761.271 351.273 762.817 351.659L766.703 352.614C769.044 353.182 770.788 354.051 771.936 355.222C773.084 356.381 773.658 357.875 773.658 359.705C773.658 361.205 773.226 362.545 772.362 363.727C771.51 364.909 770.317 365.841 768.783 366.523C767.249 367.205 765.464 367.545 763.43 367.545C760.76 367.545 758.55 366.966 756.8 365.807C755.05 364.648 753.942 362.955 753.476 360.727L757.294 359.773C757.658 361.182 758.345 362.239 759.357 362.943C760.379 363.648 761.714 364 763.362 364C765.237 364 766.726 363.602 767.828 362.807C768.942 362 769.499 361.034 769.499 359.909C769.499 359 769.18 358.239 768.544 357.625C767.908 357 766.93 356.534 765.612 356.227L761.249 355.205C758.851 354.636 757.089 353.756 755.964 352.562C754.851 351.358 754.294 349.852 754.294 348.045C754.294 346.568 754.709 345.261 755.538 344.125C756.379 342.989 757.521 342.097 758.964 341.449C760.419 340.801 762.067 340.477 763.908 340.477C766.499 340.477 768.533 341.045 770.01 342.182C771.499 343.318 772.555 344.818 773.18 346.682ZM790.69 367.545C788.168 367.545 785.991 366.989 784.162 365.875C782.344 364.75 780.94 363.182 779.952 361.17C778.974 359.148 778.486 356.795 778.486 354.114C778.486 351.432 778.974 349.068 779.952 347.023C780.94 344.966 782.315 343.364 784.077 342.216C785.849 341.057 787.918 340.477 790.281 340.477C791.645 340.477 792.991 340.705 794.321 341.159C795.651 341.614 796.861 342.352 797.952 343.375C799.043 344.386 799.912 345.727 800.56 347.398C801.207 349.068 801.531 351.125 801.531 353.568V355.273H781.349V351.795H797.44C797.44 350.318 797.145 349 796.554 347.841C795.974 346.682 795.145 345.767 794.065 345.097C792.997 344.426 791.736 344.091 790.281 344.091C788.679 344.091 787.293 344.489 786.122 345.284C784.963 346.068 784.071 347.091 783.446 348.352C782.821 349.614 782.509 350.966 782.509 352.409V354.727C782.509 356.705 782.849 358.381 783.531 359.756C784.224 361.119 785.185 362.159 786.412 362.875C787.639 363.58 789.065 363.932 790.69 363.932C791.747 363.932 792.702 363.784 793.554 363.489C794.418 363.182 795.162 362.727 795.787 362.125C796.412 361.511 796.895 360.75 797.236 359.841L801.122 360.932C800.713 362.25 800.026 363.409 799.06 364.409C798.094 365.398 796.901 366.17 795.48 366.727C794.06 367.273 792.463 367.545 790.69 367.545ZM810.582 367.273C809.741 367.273 809.02 366.972 808.418 366.369C807.815 365.767 807.514 365.045 807.514 364.205C807.514 363.364 807.815 362.642 808.418 362.04C809.02 361.437 809.741 361.136 810.582 361.136C811.423 361.136 812.145 361.437 812.747 362.04C813.349 362.642 813.651 363.364 813.651 364.205C813.651 364.761 813.509 365.273 813.224 365.739C812.952 366.205 812.582 366.58 812.116 366.864C811.662 367.136 811.151 367.273 810.582 367.273Z" fill="#D9D9D9"/>
<path d="M1289.37 351.381L1282.79 344.797C1287.72 338.217 1286.37 328.891 1279.79 323.967C1273.21 319.043 1263.89 320.386 1258.96 326.966C1254.04 333.546 1255.38 342.872 1261.96 347.796C1267.25 351.751 1274.51 351.751 1279.79 347.796L1286.38 354.379C1287.2 355.207 1288.55 355.207 1289.37 354.379C1290.2 353.552 1290.2 352.211 1289.37 351.384L1289.37 351.381ZM1270.93 346.525C1265.08 346.525 1260.34 341.785 1260.34 335.937C1260.34 330.089 1265.08 325.348 1270.93 325.348C1276.78 325.348 1281.52 330.089 1281.52 335.937C1281.52 341.782 1276.78 346.519 1270.93 346.525Z" fill="white"/>
<rect x="1339" y="78" width="100" height="24" fill="#D9D9D9"/>
</g>
<defs>
<filter id="filter0_d_1_92" x="-4" y="117" width="1520" height="108" filterUnits="userSpaceOnUse" color-interpolation-filters="sRGB">
<feFlood flood-opacity="0" result="BackgroundImageFix"/>
<feColorMatrix in="SourceAlpha" type="matrix" values="0 0 0 0 0 0 0 0 0 0 0 0 0 0 0 0 0 0 127 0" result="hardAlpha"/>
<feOffset dy="1"/>
<feGaussianBlur stdDeviation="2"/>
<feComposite in2="hardAlpha" operator="out"/>
<feColorMatrix type="matrix" values="0 0 0 0 0 0 0 0 0 0 0 0 0 0 0 0 0 0 0.25 0"/>
<feBlend mode="normal" in2="BackgroundImageFix" result="effect1_dropShadow_1_92"/>
<feBlend mode="normal" in="SourceGraphic" in2="effect1_dropShadow_1_92" result="shape"/>
</filter>
<clipPath id="clip0_1_92">
<rect width="1512" height="982" fill="white"/>
</clipPath>
<clipPath id="clip1_1_92">
<rect width="504.773" height="47.7467" fill="white" transform="translate(48 146)"/>
</clipPath>
</defs>
</svg>
