<?xml version="1.0" encoding="UTF-8" standalone="no"?>
<!-- Created with Inkscape (http://www.inkscape.org/) -->

<svg
   version="1.1"
   id="svg2"
   xml:space="preserve"
   width="504.77332"
   height="47.746666"
   viewBox="0 0 504.77332 47.746666"
   sodipodi:docname="UCLA-DGSOM-logo-EPS-RGB.eps"
   xmlns:inkscape="http://www.inkscape.org/namespaces/inkscape"
   xmlns:sodipodi="http://sodipodi.sourceforge.net/DTD/sodipodi-0.dtd"
   xmlns="http://www.w3.org/2000/svg"
   xmlns:svg="http://www.w3.org/2000/svg"><defs
     id="defs6" /><sodipodi:namedview
     id="namedview4"
     pagecolor="#ffffff"
     bordercolor="#666666"
     borderopacity="1.0"
     inkscape:pageshadow="2"
     inkscape:pageopacity="0.0"
     inkscape:pagecheckerboard="0" /><g
     id="g8"
     inkscape:groupmode="layer"
     inkscape:label="ink_ext_XXXXXX"
     transform="matrix(1.3333333,0,0,-1.3333333,0,47.746667)"><g
       id="g10"
       transform="scale(0.1)"><path
         d="M 763.504,0.00390625 H 0 V 358.082 H 763.504 V 0.00390625"
         style="fill:#3a71b5;fill-opacity:1;fill-rule:nonzero;stroke:none"
         id="path12" /><path
         d="m 122.102,144.617 c -0.743,5.719 -0.375,13.996 -0.375,18.063 l 8.597,97.617 h 31.957 l -8.758,-98.481 c -1.89,-21.312 6.473,-36.507 27.747,-36.507 21.753,0 33.25,15.461 35.14,34.367 l 9.07,100.621 h 31.942 l -8.828,-99.363 c -3.567,-38.25 -28.946,-66.9027 -69.969,-66.9027 -31.996,0 -52.613,20.6797 -56.523,50.5857"
         style="fill:#ffffff;fill-opacity:1;fill-rule:nonzero;stroke:none"
         id="path14" /><path
         d="m 264.762,177.672 c 4.172,46.855 35.785,85.711 90.39,85.711 14.383,0 28.176,-3.289 41.965,-12.145 l -3.644,-38.711 c -12.598,16.571 -27.555,19.258 -41.368,19.258 -33.98,0 -52.617,-23.597 -55.289,-53.476 -2.578,-29.086 12.442,-52.743 45.364,-52.743 14.371,0 29.605,4.145 45.562,20.086 l -3.539,-39.742 c -15.531,-8.4217 -29.992,-12.2577 -44.539,-12.2577 -54.039,0 -78.785,40.1447 -74.902,84.0197"
         style="fill:#ffffff;fill-opacity:1;fill-rule:nonzero;stroke:none"
         id="path16" /><path
         d="m 422.633,260.297 h 31.875 L 442.867,127.734 h 45.668 c 3.215,0 14.102,0.172 17.051,0.344 -0.16,-1.598 -2.898,-30.6249 -2.898,-30.6249 H 408.18 l 14.453,162.8439"
         style="fill:#ffffff;fill-opacity:1;fill-rule:nonzero;stroke:none"
         id="path18" /><path
         d="m 596.852,267.75 -2.207,-0.027 -87.266,-170.2699 h 33.871 l 12.262,25.8279 h 61.48 l 7.668,-25.8279 h 33.785 z M 588.68,199.5 c 1.058,2.313 1.992,5.172 2.355,6.828 0.012,0.031 0.516,0.031 0.516,0.031 0.168,-2.054 0.539,-4.488 1.211,-6.89 1.742,-7.426 14.164,-48.649 14.164,-48.649 h -40.238 c 0,0 21.558,47.625 21.992,48.68"
         style="fill:#ffffff;fill-opacity:1;fill-rule:nonzero;stroke:none"
         id="path20" /><path
         d="m 917.41,133.023 c 4.285,0 8.445,0.692 12.485,2.082 4.039,1.387 7.632,3.692 10.789,6.911 3.152,3.211 5.675,7.406 7.57,12.582 1.891,5.172 2.836,11.476 2.836,18.922 0,6.816 -0.664,12.96 -1.988,18.449 -1.321,5.488 -3.5,10.187 -6.528,14.097 -3.027,3.911 -7.035,6.911 -12.015,8.989 -4.985,2.086 -11.133,3.125 -18.454,3.125 h -21.191 v -85.157 z m 2.078,110.137 c 8.707,0 16.809,-1.39 24.317,-4.164 7.504,-2.777 14.004,-6.937 19.492,-12.488 5.488,-5.555 9.777,-12.492 12.867,-20.817 3.09,-8.328 4.637,-18.105 4.637,-29.332 0,-9.843 -1.266,-18.925 -3.781,-27.25 -2.532,-8.328 -6.344,-15.519 -11.454,-21.574 -5.113,-6.055 -11.484,-10.82 -19.109,-14.285 -7.637,-3.473 -16.629,-5.207 -26.969,-5.207 H 861.203 V 243.16 h 58.285"
         style="fill:#100f0d;fill-opacity:1;fill-rule:nonzero;stroke:none"
         id="path22" /><path
         d="m 1059.52,155.922 c -1.13,-1.012 -2.55,-1.801 -4.26,-2.363 -1.7,-0.575 -3.53,-1.043 -5.48,-1.422 -1.96,-0.375 -4.01,-0.696 -6.15,-0.949 -2.15,-0.254 -4.29,-0.567 -6.44,-0.942 -2.02,-0.383 -4.01,-0.891 -5.96,-1.519 -1.96,-0.629 -3.66,-1.485 -5.11,-2.551 -1.45,-1.074 -2.62,-2.434 -3.5,-4.071 -0.88,-1.64 -1.32,-3.718 -1.32,-6.246 0,-2.394 0.44,-4.418 1.32,-6.05 0.88,-1.645 2.08,-2.938 3.6,-3.883 1.51,-0.946 3.28,-1.61 5.29,-1.988 2.02,-0.375 4.11,-0.567 6.25,-0.567 5.3,0 9.4,0.883 12.3,2.652 2.9,1.762 5.04,3.875 6.44,6.336 1.38,2.461 2.23,4.954 2.55,7.477 0.31,2.519 0.47,4.543 0.47,6.055 z m -62.067,19.871 c 0.379,6.305 1.957,11.543 4.727,15.703 2.78,4.164 6.31,7.504 10.6,10.027 4.29,2.528 9.12,4.325 14.48,5.399 5.36,1.066 10.75,1.605 16.18,1.605 4.92,0 9.9,-0.347 14.95,-1.039 5.04,-0.695 9.65,-2.05 13.81,-4.066 4.16,-2.024 7.57,-4.824 10.22,-8.426 2.65,-3.594 3.97,-8.359 3.97,-14.285 v -50.902 c 0,-4.422 0.26,-8.645 0.76,-12.684 0.5,-4.035 1.39,-7.062 2.65,-9.082 h -27.25 c -0.5,1.516 -0.92,3.059 -1.23,4.641 -0.32,1.57 -0.54,3.183 -0.66,4.824 -4.29,-4.418 -9.34,-7.512 -15.14,-9.274 -5.81,-1.765 -11.73,-2.652 -17.79,-2.652 -4.67,0 -9.02,0.566 -13.06,1.703 -4.03,1.141 -7.56,2.903 -10.59,5.301 -3.03,2.394 -5.396,5.426 -7.1,9.082 -1.699,3.656 -2.554,8.012 -2.554,13.062 0,5.543 0.976,10.122 2.933,13.715 1.954,3.598 4.481,6.465 7.571,8.614 3.09,2.14 6.62,3.75 10.59,4.824 3.98,1.066 7.98,1.922 12.02,2.555 4.04,0.628 8.01,1.136 11.92,1.511 3.92,0.379 7.38,0.949 10.41,1.703 3.03,0.758 5.42,1.864 7.19,3.313 1.77,1.449 2.59,3.562 2.46,6.344 0,2.898 -0.47,5.199 -1.42,6.902 -0.94,1.703 -2.21,3.027 -3.78,3.977 -1.58,0.945 -3.41,1.574 -5.49,1.89 -2.08,0.317 -4.32,0.473 -6.71,0.473 -5.31,0 -9.47,-1.137 -12.49,-3.406 -3.03,-2.27 -4.8,-6.055 -5.3,-11.352 h -26.877"
         style="fill:#100f0d;fill-opacity:1;fill-rule:nonzero;stroke:none"
         id="path24" /><path
         d="m 1131.43,108.043 -33.49,97.84 h 28.19 l 20.63,-66.805 h 0.38 l 20.62,66.805 h 26.68 l -33.11,-97.84 h -29.9"
         style="fill:#100f0d;fill-opacity:1;fill-rule:nonzero;stroke:none"
         id="path26" /><path
         d="m 1233.24,205.883 v -97.84 h -26.87 v 97.84 z m -26.87,15.137 v 22.14 h 26.87 v -22.14 h -26.87"
         style="fill:#100f0d;fill-opacity:1;fill-rule:nonzero;stroke:none"
         id="path28" /><path
         d="m 1322.75,168.883 c -0.76,3.722 -2.06,7.004 -3.89,9.84 -1.83,2.843 -4.19,5.14 -7.09,6.91 -2.91,1.762 -6.56,2.644 -10.98,2.644 -4.42,0 -8.14,-0.882 -11.16,-2.644 -3.03,-1.77 -5.46,-4.102 -7.29,-7.004 -1.83,-2.902 -3.15,-6.215 -3.97,-9.938 -0.82,-3.718 -1.23,-7.601 -1.23,-11.632 0,-3.786 0.44,-7.575 1.32,-11.36 0.88,-3.785 2.3,-7.156 4.26,-10.121 1.95,-2.965 4.42,-5.367 7.38,-7.191 2.96,-1.832 6.53,-2.746 10.69,-2.746 4.42,0 8.11,0.882 11.07,2.652 2.97,1.762 5.33,4.133 7.1,7.094 1.76,2.965 3.03,6.343 3.79,10.129 0.75,3.785 1.13,7.687 1.13,11.726 0,4.039 -0.38,7.922 -1.13,11.641 z m 1.13,-48.348 c -3.16,-5.301 -7.29,-9.117 -12.39,-11.449 -5.12,-2.336 -10.89,-3.504 -17.32,-3.504 -7.32,0 -13.75,1.422 -19.31,4.258 -5.55,2.844 -10.12,6.683 -13.71,11.543 -3.6,4.859 -6.31,10.441 -8.14,16.75 -1.83,6.308 -2.75,12.871 -2.75,19.683 0,6.555 0.92,12.895 2.75,19.016 1.83,6.117 4.54,11.512 8.14,16.18 3.59,4.668 8.1,8.422 13.53,11.258 5.42,2.839 11.73,4.257 18.92,4.257 5.8,0 11.32,-1.23 16.56,-3.687 5.23,-2.461 9.37,-6.086 12.4,-10.883 h 0.37 v 49.203 h 26.88 V 108.043 h -25.55 v 12.492 h -0.38"
         style="fill:#100f0d;fill-opacity:1;fill-rule:nonzero;stroke:none"
         id="path30" /><path
         d="m 1505.55,109.086 c -6.44,-2.711 -12.94,-4.07 -19.49,-4.07 -10.35,0 -19.66,1.797 -27.92,5.39 -8.26,3.602 -15.23,8.551 -20.91,14.86 -5.68,6.304 -10.03,13.718 -13.05,22.238 -3.03,8.516 -4.54,17.687 -4.54,27.527 0,10.094 1.51,19.461 4.54,28.106 3.02,8.636 7.37,16.176 13.05,22.613 5.68,6.434 12.65,11.48 20.91,15.137 8.26,3.66 17.57,5.488 27.92,5.488 6.93,0 13.65,-1.039 20.15,-3.121 6.5,-2.078 12.36,-5.141 17.6,-9.18 5.23,-4.039 9.56,-9.019 12.96,-14.945 3.41,-5.934 5.49,-12.746 6.24,-20.441 h -28.38 c -1.77,7.57 -5.18,13.25 -10.22,17.031 -5.04,3.785 -11.16,5.679 -18.35,5.679 -6.69,0 -12.37,-1.296 -17.04,-3.882 -4.66,-2.586 -8.45,-6.055 -11.35,-10.407 -2.9,-4.351 -5.01,-9.304 -6.34,-14.855 -1.32,-5.555 -1.99,-11.289 -1.99,-17.223 0,-5.676 0.67,-11.195 1.99,-16.558 1.33,-5.36 3.44,-10.184 6.34,-14.473 2.9,-4.289 6.69,-7.727 11.35,-10.316 4.67,-2.582 10.35,-3.875 17.04,-3.875 9.83,0 17.44,2.488 22.8,7.472 5.36,4.981 8.48,12.203 9.36,21.664 h -29.89 v 22.145 h 56.77 v -73.047 h -18.93 l -3.02,15.328 c -5.3,-6.812 -11.17,-11.578 -17.6,-14.285"
         style="fill:#100f0d;fill-opacity:1;fill-rule:nonzero;stroke:none"
         id="path32" /><path
         d="m 1625.43,182.98 c -3.22,3.532 -8.11,5.297 -14.67,5.297 -4.29,0 -7.85,-0.726 -10.69,-2.172 -2.84,-1.457 -5.11,-3.25 -6.82,-5.394 -1.7,-2.145 -2.9,-4.422 -3.59,-6.813 -0.69,-2.398 -1.1,-4.543 -1.23,-6.433 h 43.71 c -1.26,6.808 -3.5,11.984 -6.71,15.515 z m -30.37,-51.468 c 4.03,-3.91 9.83,-5.871 17.4,-5.871 5.43,0 10.1,1.359 14.01,4.074 3.91,2.711 6.3,5.582 7.19,8.605 h 23.65 c -3.78,-11.73 -9.59,-20.125 -17.41,-25.168 -7.82,-5.047 -17.28,-7.57 -28.38,-7.57 -7.7,0 -14.64,1.231 -20.82,3.691 -6.18,2.461 -11.42,5.961 -15.7,10.504 -4.3,4.539 -7.61,9.965 -9.94,16.274 -2.33,6.304 -3.5,13.25 -3.5,20.816 0,7.317 1.2,14.125 3.59,20.442 2.4,6.3 5.8,11.757 10.22,16.367 4.42,4.601 9.69,8.23 15.8,10.879 6.12,2.648 12.9,3.972 20.35,3.972 8.33,0 15.58,-1.605 21.76,-4.824 6.18,-3.219 11.26,-7.539 15.23,-12.965 3.98,-5.422 6.84,-11.605 8.62,-18.543 1.76,-6.937 2.39,-14.195 1.89,-21.761 h -70.59 c 0.38,-8.704 2.58,-15.016 6.63,-18.922"
         style="fill:#100f0d;fill-opacity:1;fill-rule:nonzero;stroke:none"
         id="path34" /><path
         d="m 1664.69,187.902 v 17.981 h 16.08 v 7.566 c 0,8.707 2.72,15.828 8.14,21.383 5.42,5.551 13.63,8.328 24.6,8.328 2.39,0 4.8,-0.097 7.19,-0.289 2.4,-0.183 4.74,-0.344 7.01,-0.473 V 222.34 c -3.16,0.383 -6.44,0.57 -9.85,0.57 -3.65,0 -6.27,-0.851 -7.85,-2.555 -1.58,-1.703 -2.36,-4.574 -2.36,-8.609 v -5.863 h 18.54 v -17.981 h -18.54 v -79.859 h -26.88 v 79.859 h -16.08"
         style="fill:#100f0d;fill-opacity:1;fill-rule:nonzero;stroke:none"
         id="path36" /><path
         d="m 1724.3,187.902 v 17.981 h 16.08 v 7.566 c 0,8.707 2.72,15.828 8.14,21.383 5.42,5.551 13.62,8.328 24.6,8.328 2.39,0 4.8,-0.097 7.19,-0.289 2.4,-0.183 4.74,-0.344 7.01,-0.473 V 222.34 c -3.16,0.383 -6.44,0.57 -9.85,0.57 -3.66,0 -6.27,-0.851 -7.85,-2.555 -1.58,-1.703 -2.36,-4.574 -2.36,-8.609 v -5.863 h 18.54 v -17.981 h -18.54 v -79.859 h -26.88 v 79.859 h -16.08"
         style="fill:#100f0d;fill-opacity:1;fill-rule:nonzero;stroke:none"
         id="path38" /><path
         d="m 1856.67,182.98 c -3.22,3.532 -8.1,5.297 -14.67,5.297 -4.28,0 -7.85,-0.726 -10.69,-2.172 -2.84,-1.457 -5.11,-3.25 -6.81,-5.394 -1.7,-2.145 -2.9,-4.422 -3.6,-6.813 -0.69,-2.398 -1.1,-4.543 -1.23,-6.433 h 43.72 c -1.26,6.808 -3.5,11.984 -6.72,15.515 z m -30.37,-51.468 c 4.03,-3.91 9.84,-5.871 17.41,-5.871 5.42,0 10.09,1.359 14,4.074 3.91,2.711 6.31,5.582 7.19,8.605 h 23.66 c -3.79,-11.73 -9.59,-20.125 -17.41,-25.168 -7.83,-5.047 -17.29,-7.57 -28.39,-7.57 -7.7,0 -14.63,1.231 -20.82,3.691 -6.18,2.461 -11.41,5.961 -15.7,10.504 -4.29,4.539 -7.6,9.965 -9.93,16.274 -2.34,6.304 -3.51,13.25 -3.51,20.816 0,7.317 1.2,14.125 3.6,20.442 2.4,6.3 5.8,11.757 10.22,16.367 4.41,4.601 9.68,8.23 15.8,10.879 6.12,2.648 12.9,3.972 20.34,3.972 8.33,0 15.58,-1.605 21.76,-4.824 6.18,-3.219 11.26,-7.539 15.24,-12.965 3.97,-5.422 6.84,-11.605 8.61,-18.543 1.76,-6.937 2.39,-14.195 1.89,-21.761 h -70.59 c 0.39,-8.704 2.59,-15.016 6.63,-18.922"
         style="fill:#100f0d;fill-opacity:1;fill-rule:nonzero;stroke:none"
         id="path40" /><path
         d="m 1931.71,205.883 v -13.629 h 0.56 c 3.41,5.68 7.82,9.809 13.24,12.394 5.43,2.586 10.98,3.879 16.65,3.879 7.21,0 13.09,-0.976 17.7,-2.929 4.61,-1.957 8.24,-4.672 10.88,-8.141 2.65,-3.473 4.51,-7.695 5.58,-12.68 1.08,-4.984 1.63,-10.504 1.63,-16.558 v -60.176 h -26.88 v 55.262 c 0,8.07 -1.27,14.093 -3.79,18.07 -2.52,3.973 -7,5.961 -13.44,5.961 -7.32,0 -12.61,-2.18 -15.89,-6.527 -3.29,-4.356 -4.93,-11.516 -4.93,-21.481 v -51.285 h -26.86 v 97.84 h 25.55"
         style="fill:#100f0d;fill-opacity:1;fill-rule:nonzero;stroke:none"
         id="path42" /><path
         d="m 2096.52,141.352 c 1.64,-3.157 3.82,-5.711 6.53,-7.668 2.72,-1.954 5.9,-3.403 9.56,-4.352 3.66,-0.945 7.45,-1.422 11.35,-1.422 2.65,0 5.49,0.223 8.52,0.664 3.02,0.442 5.87,1.297 8.51,2.555 2.65,1.262 4.86,3 6.62,5.207 1.77,2.207 2.66,5.016 2.66,8.422 0,3.656 -1.17,6.621 -3.51,8.89 -2.33,2.274 -5.39,4.168 -9.18,5.68 -3.77,1.516 -8.06,2.836 -12.86,3.977 -4.79,1.133 -9.66,2.39 -14.57,3.781 -5.05,1.262 -9.97,2.805 -14.76,4.637 -4.8,1.828 -9.08,4.191 -12.87,7.097 -3.78,2.903 -6.84,6.528 -9.17,10.879 -2.35,4.352 -3.51,9.617 -3.51,15.801 0,6.938 1.48,12.965 4.45,18.07 2.96,5.114 6.84,9.371 11.63,12.774 4.8,3.41 10.23,5.929 16.28,7.574 6.06,1.637 12.11,2.457 18.17,2.457 7.06,0 13.85,-0.785 20.34,-2.363 6.49,-1.578 12.27,-4.137 17.31,-7.668 5.05,-3.528 9.06,-8.039 12.03,-13.528 2.95,-5.492 4.44,-12.144 4.44,-19.961 h -28.76 c -0.25,4.032 -1.11,7.375 -2.56,10.028 -1.45,2.644 -3.38,4.73 -5.77,6.246 -2.4,1.512 -5.15,2.582 -8.23,3.211 -3.1,0.633 -6.47,0.949 -10.13,0.949 -2.39,0 -4.8,-0.254 -7.19,-0.758 -2.4,-0.504 -4.57,-1.386 -6.53,-2.644 -1.95,-1.266 -3.57,-2.844 -4.83,-4.735 -1.26,-1.894 -1.88,-4.293 -1.88,-7.191 0,-2.652 0.5,-4.797 1.51,-6.438 1.01,-1.636 2.99,-3.152 5.96,-4.539 2.96,-1.386 7.06,-2.773 12.31,-4.16 5.22,-1.39 12.07,-3.16 20.52,-5.301 2.52,-0.503 6.03,-1.418 10.51,-2.746 4.47,-1.324 8.92,-3.437 13.34,-6.336 4.41,-2.906 8.23,-6.785 11.45,-11.636 3.21,-4.86 4.82,-11.075 4.82,-18.645 0,-6.18 -1.2,-11.918 -3.59,-17.219 -2.41,-5.3 -5.96,-9.875 -10.7,-13.718 -4.72,-3.852 -10.59,-6.844 -17.6,-8.989 -7,-2.144 -15.1,-3.218 -24.31,-3.218 -7.44,0 -14.67,0.918 -21.67,2.746 -7,1.824 -13.18,4.695 -18.55,8.605 -5.36,3.914 -9.62,8.899 -12.77,14.953 -3.15,6.055 -4.67,13.246 -4.54,21.575 h 28.76 c 0,-4.543 0.82,-8.391 2.46,-11.543"
         style="fill:#100f0d;fill-opacity:1;fill-rule:nonzero;stroke:none"
         id="path44" /><path
         d="m 2240.53,188.277 c -4.29,0 -7.89,-0.976 -10.79,-2.929 -2.9,-1.957 -5.26,-4.481 -7.09,-7.575 -1.83,-3.089 -3.12,-6.496 -3.88,-10.21 -0.76,-3.727 -1.14,-7.415 -1.14,-11.079 0,-3.527 0.38,-7.129 1.14,-10.785 0.76,-3.656 1.99,-6.972 3.69,-9.929 1.71,-2.969 4,-5.399 6.9,-7.286 2.9,-1.894 6.44,-2.843 10.61,-2.843 6.42,0 11.37,1.797 14.85,5.394 3.47,3.598 5.65,8.418 6.52,14.481 h 25.93 c -1.77,-13 -6.81,-22.903 -15.13,-29.711 -8.33,-6.813 -19,-10.223 -31.99,-10.223 -7.31,0 -14.03,1.231 -20.15,3.691 -6.13,2.461 -11.32,5.895 -15.61,10.313 -4.3,4.414 -7.64,9.684 -10.03,15.801 -2.4,6.121 -3.6,12.84 -3.6,20.156 0,7.57 1.1,14.602 3.31,21.102 2.21,6.492 5.46,12.109 9.74,16.839 4.29,4.731 9.54,8.422 15.72,11.071 6.18,2.648 13.24,3.972 21.19,3.972 5.8,0 11.39,-0.757 16.75,-2.269 5.36,-1.516 10.15,-3.82 14.38,-6.906 4.22,-3.094 7.67,-6.942 10.31,-11.547 2.65,-4.606 4.16,-10.059 4.55,-16.367 h -26.31 c -1.77,11.226 -8.39,16.839 -19.87,16.839"
         style="fill:#100f0d;fill-opacity:1;fill-rule:nonzero;stroke:none"
         id="path46" /><path
         d="m 2329.28,243.16 v -50.906 h 0.57 c 3.41,5.68 7.76,9.809 13.06,12.394 5.3,2.586 10.47,3.879 15.51,3.879 7.2,0 13.09,-0.976 17.7,-2.929 4.6,-1.957 8.23,-4.672 10.88,-8.141 2.65,-3.473 4.51,-7.695 5.58,-12.68 1.08,-4.984 1.62,-10.504 1.62,-16.558 v -60.176 h -26.88 v 55.262 c 0,8.07 -1.26,14.093 -3.79,18.07 -2.52,3.973 -7,5.961 -13.43,5.961 -7.32,0 -12.61,-2.18 -15.89,-6.527 -3.29,-4.356 -4.93,-11.516 -4.93,-21.481 v -51.285 h -26.87 V 243.16 h 26.87"
         style="fill:#100f0d;fill-opacity:1;fill-rule:nonzero;stroke:none"
         id="path48" /><path
         d="m 2439.61,145.418 c 0.76,-3.723 2.05,-7.066 3.88,-10.031 1.83,-2.961 4.26,-5.332 7.29,-7.094 3.03,-1.77 6.8,-2.652 11.35,-2.652 4.54,0 8.35,0.882 11.45,2.652 3.09,1.762 5.55,4.133 7.37,7.094 1.83,2.965 3.13,6.308 3.89,10.031 0.75,3.719 1.13,7.539 1.13,11.449 0,3.906 -0.38,7.758 -1.13,11.543 -0.76,3.785 -2.06,7.125 -3.89,10.031 -1.82,2.899 -4.28,5.266 -7.37,7.094 -3.1,1.828 -6.91,2.742 -11.45,2.742 -4.55,0 -8.32,-0.914 -11.35,-2.742 -3.03,-1.828 -5.46,-4.195 -7.29,-7.094 -1.83,-2.906 -3.12,-6.246 -3.88,-10.031 -0.76,-3.785 -1.14,-7.637 -1.14,-11.543 0,-3.91 0.38,-7.73 1.14,-11.449 z m -24.41,32.738 c 2.39,6.367 5.8,11.797 10.22,16.274 4.41,4.476 9.71,7.949 15.89,10.41 6.18,2.457 13.12,3.687 20.82,3.687 7.69,0 14.66,-1.23 20.9,-3.687 6.25,-2.461 11.59,-5.934 16,-10.41 4.41,-4.477 7.82,-9.907 10.21,-16.274 2.41,-6.371 3.6,-13.465 3.6,-21.289 0,-7.82 -1.19,-14.887 -3.6,-21.195 -2.39,-6.309 -5.8,-11.699 -10.21,-16.18 -4.41,-4.48 -9.75,-7.918 -16,-10.308 -6.24,-2.399 -13.21,-3.602 -20.9,-3.602 -7.7,0 -14.64,1.203 -20.82,3.602 -6.18,2.39 -11.48,5.828 -15.89,10.308 -4.42,4.481 -7.83,9.871 -10.22,16.18 -2.4,6.308 -3.6,13.375 -3.6,21.195 0,7.824 1.2,14.918 3.6,21.289"
         style="fill:#100f0d;fill-opacity:1;fill-rule:nonzero;stroke:none"
         id="path50" /><path
         d="m 2555.22,145.418 c 0.76,-3.723 2.05,-7.066 3.89,-10.031 1.82,-2.961 4.26,-5.332 7.28,-7.094 3.03,-1.77 6.81,-2.652 11.35,-2.652 4.54,0 8.36,0.882 11.46,2.652 3.08,1.762 5.54,4.133 7.37,7.094 1.82,2.965 3.12,6.308 3.89,10.031 0.75,3.719 1.13,7.539 1.13,11.449 0,3.906 -0.38,7.758 -1.13,11.543 -0.77,3.785 -2.07,7.125 -3.89,10.031 -1.83,2.899 -4.29,5.266 -7.37,7.094 -3.1,1.828 -6.92,2.742 -11.46,2.742 -4.54,0 -8.32,-0.914 -11.35,-2.742 -3.02,-1.828 -5.46,-4.195 -7.28,-7.094 -1.84,-2.906 -3.13,-6.246 -3.89,-10.031 -0.75,-3.785 -1.13,-7.637 -1.13,-11.543 0,-3.91 0.38,-7.73 1.13,-11.449 z m -24.4,32.738 c 2.39,6.367 5.8,11.797 10.21,16.274 4.42,4.476 9.72,7.949 15.9,10.41 6.17,2.457 13.12,3.687 20.81,3.687 7.7,0 14.67,-1.23 20.91,-3.687 6.25,-2.461 11.58,-5.934 15.99,-10.41 4.42,-4.477 7.83,-9.907 10.22,-16.274 2.4,-6.371 3.59,-13.465 3.59,-21.289 0,-7.82 -1.19,-14.887 -3.59,-21.195 -2.39,-6.309 -5.8,-11.699 -10.22,-16.18 -4.41,-4.48 -9.74,-7.918 -15.99,-10.308 -6.24,-2.399 -13.21,-3.602 -20.91,-3.602 -7.69,0 -14.64,1.203 -20.81,3.602 -6.18,2.39 -11.48,5.828 -15.9,10.308 -4.41,4.481 -7.82,9.871 -10.21,16.18 -2.41,6.308 -3.61,13.375 -3.61,21.195 0,7.824 1.2,14.918 3.61,21.289"
         style="fill:#100f0d;fill-opacity:1;fill-rule:nonzero;stroke:none"
         id="path52" /><path
         d="M 2673.5,243.16 V 108.043 h -26.87 V 243.16 h 26.87"
         style="fill:#100f0d;fill-opacity:1;fill-rule:nonzero;stroke:none"
         id="path54" /><path
         d="m 2772.27,145.418 c 0.76,-3.723 2.05,-7.066 3.89,-10.031 1.82,-2.961 4.26,-5.332 7.28,-7.094 3.03,-1.77 6.81,-2.652 11.35,-2.652 4.54,0 8.36,0.882 11.46,2.652 3.08,1.762 5.54,4.133 7.37,7.094 1.83,2.965 3.12,6.308 3.89,10.031 0.75,3.719 1.13,7.539 1.13,11.449 0,3.906 -0.38,7.758 -1.13,11.543 -0.77,3.785 -2.06,7.125 -3.89,10.031 -1.83,2.899 -4.29,5.266 -7.37,7.094 -3.1,1.828 -6.92,2.742 -11.46,2.742 -4.54,0 -8.32,-0.914 -11.35,-2.742 -3.02,-1.828 -5.46,-4.195 -7.28,-7.094 -1.84,-2.906 -3.13,-6.246 -3.89,-10.031 -0.75,-3.785 -1.13,-7.637 -1.13,-11.543 0,-3.91 0.38,-7.73 1.13,-11.449 z m -24.4,32.738 c 2.39,6.367 5.8,11.797 10.21,16.274 4.42,4.476 9.72,7.949 15.9,10.41 6.17,2.457 13.12,3.687 20.81,3.687 7.7,0 14.67,-1.23 20.91,-3.687 6.25,-2.461 11.58,-5.934 16,-10.41 4.41,-4.477 7.82,-9.907 10.21,-16.274 2.4,-6.371 3.59,-13.465 3.59,-21.289 0,-7.82 -1.19,-14.887 -3.59,-21.195 -2.39,-6.309 -5.8,-11.699 -10.21,-16.18 -4.42,-4.48 -9.75,-7.918 -16,-10.308 -6.24,-2.399 -13.21,-3.602 -20.91,-3.602 -7.69,0 -14.64,1.203 -20.81,3.602 -6.18,2.39 -11.48,5.828 -15.9,10.308 -4.41,4.481 -7.82,9.871 -10.21,16.18 -2.4,6.308 -3.61,13.375 -3.61,21.195 0,7.824 1.21,14.918 3.61,21.289"
         style="fill:#100f0d;fill-opacity:1;fill-rule:nonzero;stroke:none"
         id="path56" /><path
         d="m 2852.7,187.902 v 17.981 h 16.09 v 7.566 c 0,8.707 2.71,15.828 8.13,21.383 5.43,5.551 13.63,8.328 24.6,8.328 2.4,0 4.79,-0.097 7.2,-0.289 2.39,-0.183 4.72,-0.344 7,-0.473 V 222.34 c -3.16,0.383 -6.44,0.57 -9.84,0.57 -3.67,0 -6.28,-0.851 -7.86,-2.555 -1.58,-1.703 -2.36,-4.574 -2.36,-8.609 v -5.863 h 18.55 v -17.981 h -18.55 v -79.859 h -26.87 v 79.859 h -16.09"
         style="fill:#100f0d;fill-opacity:1;fill-rule:nonzero;stroke:none"
         id="path58" /><path
         d="m 3023.21,243.16 31.6,-92.914 h 0.37 l 29.9,92.914 h 41.83 V 108.043 h -27.82 v 95.754 h -0.38 l -33.12,-95.754 h -22.9 l -33.11,94.812 h -0.37 v -94.812 h -27.83 V 243.16 h 41.83"
         style="fill:#100f0d;fill-opacity:1;fill-rule:nonzero;stroke:none"
         id="path60" /><path
         d="m 3209.31,182.98 c -3.21,3.532 -8.1,5.297 -14.67,5.297 -4.28,0 -7.85,-0.726 -10.69,-2.172 -2.83,-1.457 -5.11,-3.25 -6.81,-5.394 -1.7,-2.145 -2.91,-4.422 -3.59,-6.813 -0.7,-2.398 -1.11,-4.543 -1.23,-6.433 h 43.71 c -1.26,6.808 -3.5,11.984 -6.72,15.515 z m -30.37,-51.468 c 4.03,-3.91 9.84,-5.871 17.41,-5.871 5.42,0 10.09,1.359 14.01,4.074 3.9,2.711 6.3,5.582 7.19,8.605 h 23.65 c -3.78,-11.73 -9.59,-20.125 -17.41,-25.168 -7.83,-5.047 -17.29,-7.57 -28.38,-7.57 -7.7,0 -14.64,1.231 -20.82,3.691 -6.19,2.461 -11.42,5.961 -15.71,10.504 -4.29,4.539 -7.6,9.965 -9.94,16.274 -2.33,6.304 -3.49,13.25 -3.49,20.816 0,7.317 1.2,14.125 3.59,20.442 2.39,6.3 5.8,11.757 10.22,16.367 4.42,4.601 9.68,8.23 15.8,10.879 6.12,2.648 12.9,3.972 20.35,3.972 8.32,0 15.57,-1.605 21.75,-4.824 6.19,-3.219 11.26,-7.539 15.24,-12.965 3.97,-5.422 6.84,-11.605 8.61,-18.543 1.77,-6.937 2.39,-14.195 1.9,-21.761 h -70.59 c 0.37,-8.704 2.58,-15.016 6.62,-18.922"
         style="fill:#100f0d;fill-opacity:1;fill-rule:nonzero;stroke:none"
         id="path62" /><path
         d="m 3327.12,168.883 c -0.77,3.722 -2.06,7.004 -3.88,9.84 -1.84,2.843 -4.2,5.14 -7.1,6.91 -2.9,1.762 -6.56,2.644 -10.98,2.644 -4.41,0 -8.13,-0.882 -11.16,-2.644 -3.03,-1.77 -5.46,-4.102 -7.28,-7.004 -1.84,-2.902 -3.16,-6.215 -3.98,-9.938 -0.82,-3.718 -1.23,-7.601 -1.23,-11.632 0,-3.786 0.44,-7.575 1.32,-11.36 0.89,-3.785 2.3,-7.156 4.26,-10.121 1.96,-2.965 4.41,-5.367 7.38,-7.191 2.97,-1.832 6.53,-2.746 10.69,-2.746 4.42,0 8.11,0.882 11.08,2.652 2.96,1.762 5.32,4.133 7.09,7.094 1.76,2.965 3.02,6.343 3.79,10.129 0.75,3.785 1.13,7.687 1.13,11.726 0,4.039 -0.38,7.922 -1.13,11.641 z m 1.13,-48.348 c -3.16,-5.301 -7.29,-9.117 -12.39,-11.449 -5.11,-2.336 -10.88,-3.504 -17.32,-3.504 -7.32,0 -13.75,1.422 -19.31,4.258 -5.54,2.844 -10.12,6.683 -13.72,11.543 -3.59,4.859 -6.3,10.441 -8.13,16.75 -1.83,6.308 -2.74,12.871 -2.74,19.683 0,6.555 0.91,12.895 2.74,19.016 1.83,6.117 4.54,11.512 8.13,16.18 3.6,4.668 8.11,8.422 13.54,11.258 5.42,2.839 11.73,4.257 18.92,4.257 5.81,0 11.32,-1.23 16.56,-3.687 5.23,-2.461 9.36,-6.086 12.39,-10.883 h 0.38 v 49.203 h 26.88 V 108.043 h -25.55 v 12.492 h -0.38"
         style="fill:#100f0d;fill-opacity:1;fill-rule:nonzero;stroke:none"
         id="path64" /><path
         d="m 3402.06,205.883 v -97.84 h -26.88 v 97.84 z m -26.88,15.137 v 22.14 h 26.88 v -22.14 h -26.88"
         style="fill:#100f0d;fill-opacity:1;fill-rule:nonzero;stroke:none"
         id="path66" /><path
         d="m 3469.99,188.277 c -4.3,0 -7.89,-0.976 -10.79,-2.929 -2.9,-1.957 -5.27,-4.481 -7.09,-7.575 -1.84,-3.089 -3.13,-6.496 -3.89,-10.21 -0.75,-3.727 -1.13,-7.415 -1.13,-11.079 0,-3.527 0.38,-7.129 1.13,-10.785 0.76,-3.656 1.99,-6.972 3.69,-9.929 1.71,-2.969 4,-5.399 6.9,-7.286 2.91,-1.894 6.44,-2.843 10.61,-2.843 6.43,0 11.38,1.797 14.85,5.394 3.47,3.598 5.65,8.418 6.53,14.481 h 25.92 c -1.76,-13 -6.81,-22.903 -15.13,-29.711 -8.33,-6.813 -19,-10.223 -31.98,-10.223 -7.32,0 -14.04,1.231 -20.16,3.691 -6.12,2.461 -11.32,5.895 -15.61,10.313 -4.29,4.414 -7.63,9.684 -10.03,15.801 -2.4,6.121 -3.6,12.84 -3.6,20.156 0,7.57 1.1,14.602 3.31,21.102 2.21,6.492 5.46,12.109 9.75,16.839 4.28,4.731 9.53,8.422 15.71,11.071 6.18,2.648 13.24,3.972 21.19,3.972 5.8,0 11.39,-0.757 16.75,-2.269 5.36,-1.516 10.16,-3.82 14.38,-6.906 4.22,-3.094 7.67,-6.942 10.32,-11.547 2.64,-4.606 4.16,-10.059 4.54,-16.367 h -26.31 c -1.77,11.226 -8.39,16.839 -19.86,16.839"
         style="fill:#100f0d;fill-opacity:1;fill-rule:nonzero;stroke:none"
         id="path68" /><path
         d="m 3559.5,205.883 v -97.84 h -26.88 v 97.84 z m -26.88,15.137 v 22.14 h 26.88 v -22.14 h -26.88"
         style="fill:#100f0d;fill-opacity:1;fill-rule:nonzero;stroke:none"
         id="path70" /><path
         d="m 3606.23,205.883 v -13.629 h 0.57 c 3.4,5.68 7.82,9.809 13.25,12.394 5.42,2.586 10.97,3.879 16.65,3.879 7.19,0 13.08,-0.976 17.69,-2.929 4.6,-1.957 8.23,-4.672 10.88,-8.141 2.66,-3.473 4.51,-7.695 5.59,-12.68 1.07,-4.984 1.61,-10.504 1.61,-16.558 v -60.176 h -26.88 v 55.262 c 0,8.07 -1.26,14.093 -3.79,18.07 -2.52,3.973 -7,5.961 -13.42,5.961 -7.33,0 -12.62,-2.18 -15.9,-6.527 -3.28,-4.356 -4.93,-11.516 -4.93,-21.481 v -51.285 h -26.87 v 97.84 h 25.55"
         style="fill:#100f0d;fill-opacity:1;fill-rule:nonzero;stroke:none"
         id="path72" /><path
         d="m 3752.04,182.98 c -3.22,3.532 -8.11,5.297 -14.67,5.297 -4.29,0 -7.85,-0.726 -10.69,-2.172 -2.84,-1.457 -5.11,-3.25 -6.81,-5.394 -1.71,-2.145 -2.91,-4.422 -3.59,-6.813 -0.71,-2.398 -1.12,-4.543 -1.23,-6.433 h 43.71 c -1.26,6.808 -3.51,11.984 -6.72,15.515 z m -30.37,-51.468 c 4.03,-3.91 9.83,-5.871 17.41,-5.871 5.42,0 10.09,1.359 14,4.074 3.91,2.711 6.3,5.582 7.19,8.605 h 23.65 c -3.78,-11.73 -9.59,-20.125 -17.41,-25.168 -7.82,-5.047 -17.29,-7.57 -28.38,-7.57 -7.69,0 -14.64,1.231 -20.82,3.691 -6.18,2.461 -11.42,5.961 -15.7,10.504 -4.3,4.539 -7.61,9.965 -9.94,16.274 -2.34,6.304 -3.5,13.25 -3.5,20.816 0,7.317 1.2,14.125 3.59,20.442 2.4,6.3 5.8,11.757 10.23,16.367 4.41,4.601 9.68,8.23 15.8,10.879 6.11,2.648 12.89,3.972 20.34,3.972 8.32,0 15.58,-1.605 21.76,-4.824 6.18,-3.219 11.26,-7.539 15.23,-12.965 3.98,-5.422 6.85,-11.605 8.62,-18.543 1.76,-6.937 2.39,-14.195 1.89,-21.761 h -70.58 c 0.37,-8.704 2.57,-15.016 6.62,-18.922"
         style="fill:#100f0d;fill-opacity:1;fill-rule:nonzero;stroke:none"
         id="path74" /></g></g></svg>
