<?xml version="1.0" encoding="UTF-8" standalone="no"?>
<!-- Created with Inkscape (http://www.inkscape.org/) -->

<svg
   version="1.1"
   id="svg2"
   xml:space="preserve"
   width="504.77332"
   height="47.746666"
   viewBox="0 0 504.77332 47.746666"
   sodipodi:docname="UCLA-DGSOM-logo-EPS-RGB-White.eps"
   xmlns:inkscape="http://www.inkscape.org/namespaces/inkscape"
   xmlns:sodipodi="http://sodipodi.sourceforge.net/DTD/sodipodi-0.dtd"
   xmlns="http://www.w3.org/2000/svg"
   xmlns:svg="http://www.w3.org/2000/svg"><defs
     id="defs6" /><sodipodi:namedview
     id="namedview4"
     pagecolor="#ffffff"
     bordercolor="#666666"
     borderopacity="1.0"
     inkscape:pageshadow="2"
     inkscape:pageopacity="0.0"
     inkscape:pagecheckerboard="0" /><g
     id="g8"
     inkscape:groupmode="layer"
     inkscape:label="ink_ext_XXXXXX"
     transform="matrix(1.3333333,0,0,-1.3333333,0,47.746667)"><g
       id="g10"
       transform="scale(0.1)"><path
         d="m 591.543,206.355 c 0,0 -0.496,0 -0.512,-0.027 -0.359,-1.652 -1.297,-4.512 -2.351,-6.828 -0.434,-1.055 -21.992,-48.68 -21.992,-48.68 h 40.238 c 0,0 -12.422,41.231 -14.164,48.653 -0.672,2.402 -1.047,4.832 -1.219,6.882"
         style="fill:#ffffff;fill-opacity:1;fill-rule:nonzero;stroke:none"
         id="path12" /><path
         d="m 622.66,97.4492 -7.668,25.8318 h -61.48 L 541.25,97.4492 h -33.871 l 87.266,170.2738 2.203,0.031 59.597,-170.3048 z m -119.976,0 h -94.508 l 14.457,162.8438 h 31.871 L 442.867,127.734 h 45.668 c 3.215,0 14.102,0.176 17.051,0.34 -0.16,-1.59 -2.902,-30.6248 -2.902,-30.6248 z M 393.473,212.527 c -12.598,16.575 -27.559,19.258 -41.368,19.258 -33.98,0 -52.617,-23.601 -55.289,-53.476 -2.578,-29.09 12.442,-52.743 45.364,-52.743 14.371,0 29.601,4.141 45.558,20.086 l -3.535,-39.746 c -15.531,-8.4177 -29.992,-12.2537 -44.539,-12.2537 -54.039,0 -78.785,40.1447 -74.902,84.0237 4.172,46.855 35.785,85.703 90.39,85.703 14.383,0 28.172,-3.281 41.961,-12.141 z M 248.594,160.938 c -3.567,-38.254 -28.946,-66.9067 -69.969,-66.9067 -31.996,0 -52.613,20.6757 -56.523,50.5857 -0.743,5.723 -0.375,14.004 -0.375,18.059 l 8.597,97.617 h 31.957 l -8.758,-98.477 c -1.89,-21.308 6.473,-36.503 27.747,-36.503 21.753,0 33.25,15.457 35.14,34.363 l 9.07,100.617 h 31.942 z M 0,358.086 V 0 H 763.504 V 358.086 H 0"
         style="fill:#ffffff;fill-opacity:1;fill-rule:nonzero;stroke:none"
         id="path14" /><path
         d="m 917.406,133.016 c 4.289,0 8.449,0.695 12.489,2.082 4.039,1.386 7.632,3.691 10.789,6.914 3.152,3.211 5.675,7.402 7.57,12.578 1.891,5.176 2.836,11.484 2.836,18.926 0,6.816 -0.664,12.957 -1.988,18.445 -1.321,5.488 -3.5,10.187 -6.528,14.102 -3.027,3.906 -7.035,6.906 -12.015,8.984 -4.985,2.09 -11.133,3.125 -18.454,3.125 h -21.191 v -85.156 z m 2.082,110.136 c 8.707,0 16.809,-1.386 24.317,-4.16 7.504,-2.781 14.004,-6.941 19.492,-12.488 5.488,-5.559 9.777,-12.492 12.867,-20.82 3.09,-8.321 4.637,-18.106 4.637,-29.329 0,-9.843 -1.266,-18.925 -3.781,-27.253 -2.532,-8.321 -6.344,-15.52 -11.454,-21.575 -5.113,-6.054 -11.484,-10.82 -19.109,-14.285 -7.637,-3.469 -16.629,-5.207 -26.969,-5.207 h -58.285 v 135.117 h 58.285"
         style="fill:#ffffff;fill-opacity:1;fill-rule:nonzero;stroke:none"
         id="path16" /><path
         d="m 1059.52,155.918 c -1.13,-1.016 -2.55,-1.797 -4.26,-2.363 -1.7,-0.578 -3.53,-1.047 -5.48,-1.426 -1.96,-0.371 -4.01,-0.695 -6.15,-0.949 -2.15,-0.254 -4.29,-0.567 -6.44,-0.938 -2.02,-0.379 -4.01,-0.887 -5.96,-1.523 -1.96,-0.625 -3.66,-1.485 -5.11,-2.547 -1.45,-1.074 -2.62,-2.434 -3.5,-4.074 -0.88,-1.641 -1.32,-3.719 -1.32,-6.239 0,-2.402 0.44,-4.425 1.32,-6.054 0.88,-1.641 2.08,-2.942 3.6,-3.887 1.51,-0.938 3.28,-1.602 5.29,-1.984 2.02,-0.379 4.11,-0.567 6.25,-0.567 5.3,0 9.4,0.879 12.3,2.649 2.9,1.765 5.04,3.875 6.44,6.336 1.38,2.461 2.23,4.953 2.55,7.48 0.31,2.52 0.47,4.543 0.47,6.055 z m -62.067,19.871 c 0.379,6.301 1.957,11.543 4.727,15.703 2.78,4.16 6.31,7.5 10.6,10.031 4.29,2.52 9.12,4.317 14.48,5.391 5.36,1.074 10.75,1.609 16.18,1.609 4.92,0 9.9,-0.351 14.95,-1.043 5.04,-0.695 9.65,-2.05 13.81,-4.062 4.16,-2.023 7.57,-4.824 10.22,-8.43 2.65,-3.593 3.97,-8.359 3.97,-14.285 v -50.898 c 0,-4.426 0.26,-8.645 0.76,-12.688 0.5,-4.031 1.39,-7.058 2.65,-9.082 h -27.25 c -0.5,1.516 -0.92,3.059 -1.23,4.641 -0.32,1.57 -0.54,3.183 -0.66,4.824 -4.29,-4.414 -9.34,-7.512 -15.14,-9.27 -5.81,-1.765 -11.73,-2.656 -17.79,-2.656 -4.67,0 -9.02,0.567 -13.06,1.711 -4.03,1.133 -7.56,2.899 -10.59,5.293 -3.03,2.402 -5.396,5.43 -7.1,9.082 -1.699,3.66 -2.554,8.016 -2.554,13.067 0,5.546 0.976,10.117 2.933,13.711 1.954,3.601 4.481,6.464 7.571,8.613 3.09,2.148 6.62,3.75 10.59,4.824 3.98,1.074 7.98,1.922 12.02,2.559 4.04,0.625 8.01,1.132 11.92,1.511 3.92,0.383 7.38,0.95 10.41,1.7 3.03,0.761 5.42,1.867 7.19,3.312 1.77,1.453 2.59,3.563 2.46,6.348 0,2.898 -0.47,5.195 -1.42,6.902 -0.94,1.699 -2.21,3.027 -3.78,3.977 -1.58,0.945 -3.41,1.57 -5.49,1.894 -2.08,0.313 -4.32,0.469 -6.71,0.469 -5.31,0 -9.47,-1.133 -12.49,-3.41 -3.03,-2.266 -4.8,-6.055 -5.3,-11.348 h -26.877"
         style="fill:#ffffff;fill-opacity:1;fill-rule:nonzero;stroke:none"
         id="path18" /><path
         d="m 1131.43,108.035 -33.49,97.844 h 28.19 l 20.63,-66.809 h 0.38 l 20.62,66.809 h 26.68 l -33.11,-97.844 h -29.9"
         style="fill:#ffffff;fill-opacity:1;fill-rule:nonzero;stroke:none"
         id="path20" /><path
         d="m 1233.24,205.879 v -97.844 h -26.87 v 97.844 z m -26.87,15.137 v 22.136 h 26.87 v -22.136 h -26.87"
         style="fill:#ffffff;fill-opacity:1;fill-rule:nonzero;stroke:none"
         id="path22" /><path
         d="m 1322.75,168.875 c -0.76,3.723 -2.06,7.004 -3.89,9.844 -1.83,2.844 -4.19,5.136 -7.09,6.906 -2.91,1.766 -6.56,2.645 -10.98,2.645 -4.42,0 -8.14,-0.879 -11.16,-2.645 -3.03,-1.77 -5.46,-4.102 -7.29,-7.004 -1.83,-2.898 -3.15,-6.211 -3.97,-9.93 -0.82,-3.722 -1.23,-7.609 -1.23,-11.64 0,-3.781 0.44,-7.571 1.32,-11.36 0.88,-3.777 2.3,-7.156 4.26,-10.117 1.95,-2.969 4.42,-5.371 7.38,-7.195 2.96,-1.828 6.53,-2.746 10.69,-2.746 4.42,0 8.11,0.89 11.07,2.656 2.97,1.758 5.33,4.133 7.1,7.09 1.76,2.969 3.03,6.348 3.79,10.129 0.75,3.789 1.13,7.695 1.13,11.726 0,4.043 -0.38,7.922 -1.13,11.641 z m 1.13,-48.348 c -3.16,-5.293 -7.29,-9.113 -12.39,-11.445 -5.12,-2.336 -10.89,-3.508 -17.32,-3.508 -7.32,0 -13.75,1.426 -19.31,4.258 -5.55,2.844 -10.12,6.691 -13.71,11.543 -3.6,4.863 -6.31,10.441 -8.14,16.75 -1.83,6.309 -2.75,12.871 -2.75,19.688 0,6.55 0.92,12.89 2.75,19.011 1.83,6.125 4.54,11.516 8.14,16.184 3.59,4.668 8.1,8.418 13.53,11.258 5.42,2.843 11.73,4.257 18.92,4.257 5.8,0 11.32,-1.23 16.56,-3.691 5.23,-2.461 9.37,-6.082 12.39,-10.879 h 0.38 v 49.199 h 26.88 V 108.035 h -25.55 v 12.492 h -0.38"
         style="fill:#ffffff;fill-opacity:1;fill-rule:nonzero;stroke:none"
         id="path24" /><path
         d="m 1505.55,109.082 c -6.44,-2.715 -12.94,-4.074 -19.49,-4.074 -10.35,0 -19.66,1.797 -27.92,5.39 -8.26,3.606 -15.23,8.555 -20.91,14.864 -5.68,6.301 -10.03,13.722 -13.05,22.238 -3.03,8.516 -4.54,17.684 -4.54,27.527 0,10.09 1.51,19.465 4.54,28.106 3.02,8.633 7.37,16.172 13.05,22.609 5.68,6.434 12.65,11.485 20.91,15.137 8.26,3.66 17.57,5.488 27.92,5.488 6.93,0 13.65,-1.035 20.15,-3.117 6.5,-2.078 12.36,-5.145 17.6,-9.18 5.23,-4.043 9.56,-9.023 12.96,-14.949 3.41,-5.93 5.49,-12.746 6.24,-20.441 h -28.38 c -1.77,7.57 -5.18,13.254 -10.22,17.031 -5.04,3.789 -11.16,5.684 -18.35,5.684 -6.69,0 -12.37,-1.297 -17.04,-3.887 -4.66,-2.586 -8.45,-6.055 -11.35,-10.399 -2.9,-4.355 -5.01,-9.308 -6.34,-14.863 -1.32,-5.547 -1.99,-11.289 -1.99,-17.219 0,-5.672 0.67,-11.199 1.99,-16.562 1.33,-5.36 3.44,-10.184 6.34,-14.473 2.9,-4.285 6.69,-7.722 11.35,-10.312 4.67,-2.586 10.35,-3.875 17.04,-3.875 9.83,0 17.44,2.488 22.8,7.468 5.36,4.981 8.48,12.207 9.36,21.672 h -29.89 v 22.137 h 56.77 v -73.047 h -18.93 l -3.02,15.332 c -5.3,-6.816 -11.17,-11.582 -17.6,-14.285"
         style="fill:#ffffff;fill-opacity:1;fill-rule:nonzero;stroke:none"
         id="path26" /><path
         d="m 1625.43,182.977 c -3.22,3.527 -8.11,5.293 -14.67,5.293 -4.29,0 -7.85,-0.723 -10.69,-2.168 -2.84,-1.454 -5.11,-3.25 -6.82,-5.399 -1.7,-2.14 -2.9,-4.414 -3.59,-6.808 -0.69,-2.403 -1.1,-4.54 -1.23,-6.434 h 43.71 c -1.26,6.805 -3.5,11.98 -6.71,15.516 z m -30.38,-51.473 c 4.04,-3.906 9.84,-5.871 17.41,-5.871 5.43,0 10.09,1.359 14.01,4.074 3.91,2.715 6.3,5.586 7.19,8.613 h 23.65 c -3.78,-11.738 -9.59,-20.129 -17.41,-25.175 -7.82,-5.04 -17.28,-7.571 -28.39,-7.571 -7.69,0 -14.63,1.231 -20.81,3.692 -6.18,2.461 -11.42,5.968 -15.7,10.507 -4.3,4.543 -7.61,9.961 -9.94,16.27 -2.33,6.309 -3.5,13.254 -3.5,20.82 0,7.317 1.2,14.121 3.59,20.442 2.4,6.297 5.8,11.758 10.22,16.367 4.42,4.598 9.68,8.23 15.8,10.879 6.12,2.644 12.9,3.972 20.34,3.972 8.33,0 15.59,-1.609 21.77,-4.824 6.18,-3.222 11.26,-7.539 15.23,-12.969 3.98,-5.417 6.84,-11.601 8.62,-18.542 1.76,-6.934 2.39,-14.192 1.88,-21.758 h -70.58 c 0.38,-8.703 2.58,-15.02 6.62,-18.926"
         style="fill:#ffffff;fill-opacity:1;fill-rule:nonzero;stroke:none"
         id="path28" /><path
         d="m 1664.69,187.898 v 17.981 h 16.08 v 7.566 c 0,8.703 2.72,15.832 8.14,21.379 5.42,5.555 13.63,8.328 24.6,8.328 2.39,0 4.8,-0.097 7.19,-0.281 2.4,-0.187 4.74,-0.351 7.01,-0.48 v -20.059 c -3.16,0.383 -6.44,0.578 -9.85,0.578 -3.65,0 -6.27,-0.859 -7.85,-2.558 -1.58,-1.7 -2.36,-4.571 -2.36,-8.614 v -5.859 h 18.54 v -17.981 h -18.54 v -79.863 h -26.88 v 79.863 h -16.08"
         style="fill:#ffffff;fill-opacity:1;fill-rule:nonzero;stroke:none"
         id="path30" /><path
         d="m 1724.3,187.898 v 17.981 h 16.08 v 7.566 c 0,8.703 2.72,15.832 8.14,21.379 5.42,5.555 13.62,8.328 24.6,8.328 2.39,0 4.8,-0.097 7.19,-0.281 2.4,-0.187 4.74,-0.351 7.01,-0.48 v -20.059 c -3.16,0.383 -6.44,0.578 -9.85,0.578 -3.66,0 -6.27,-0.859 -7.85,-2.558 -1.58,-1.7 -2.36,-4.571 -2.36,-8.614 v -5.859 h 18.54 v -17.981 h -18.54 v -79.863 h -26.88 v 79.863 h -16.08"
         style="fill:#ffffff;fill-opacity:1;fill-rule:nonzero;stroke:none"
         id="path32" /><path
         d="m 1856.67,182.977 c -3.22,3.527 -8.1,5.293 -14.67,5.293 -4.28,0 -7.85,-0.723 -10.69,-2.168 -2.84,-1.454 -5.11,-3.25 -6.81,-5.399 -1.7,-2.14 -2.9,-4.414 -3.6,-6.808 -0.69,-2.403 -1.1,-4.54 -1.23,-6.434 h 43.72 c -1.26,6.805 -3.5,11.98 -6.72,15.516 z m -30.37,-51.473 c 4.03,-3.906 9.84,-5.871 17.41,-5.871 5.42,0 10.09,1.359 14,4.074 3.91,2.715 6.31,5.586 7.19,8.613 h 23.66 c -3.79,-11.738 -9.59,-20.129 -17.41,-25.175 -7.83,-5.04 -17.29,-7.571 -28.39,-7.571 -7.7,0 -14.63,1.231 -20.82,3.692 -6.18,2.461 -11.41,5.968 -15.7,10.507 -4.29,4.543 -7.6,9.961 -9.94,16.27 -2.33,6.309 -3.5,13.254 -3.5,20.82 0,7.317 1.2,14.121 3.6,20.442 2.4,6.297 5.8,11.758 10.22,16.367 4.41,4.598 9.68,8.23 15.8,10.879 6.12,2.644 12.9,3.972 20.34,3.972 8.33,0 15.58,-1.609 21.76,-4.824 6.18,-3.222 11.26,-7.539 15.24,-12.969 3.97,-5.417 6.84,-11.601 8.61,-18.542 1.76,-6.934 2.39,-14.192 1.89,-21.758 h -70.59 c 0.38,-8.703 2.59,-15.02 6.63,-18.926"
         style="fill:#ffffff;fill-opacity:1;fill-rule:nonzero;stroke:none"
         id="path34" /><path
         d="m 1931.71,205.879 v -13.633 h 0.56 c 3.41,5.684 7.82,9.813 13.24,12.402 5.43,2.579 10.98,3.875 16.65,3.875 7.21,0 13.09,-0.976 17.7,-2.929 4.61,-1.961 8.24,-4.676 10.88,-8.145 2.65,-3.465 4.51,-7.695 5.58,-12.676 1.08,-4.988 1.63,-10.507 1.63,-16.562 v -60.176 h -26.88 v 55.266 c 0,8.066 -1.27,14.09 -3.79,18.066 -2.52,3.973 -7,5.965 -13.44,5.965 -7.32,0 -12.61,-2.176 -15.89,-6.531 -3.29,-4.356 -4.93,-11.516 -4.93,-21.477 v -51.289 h -26.86 v 97.844 h 25.55"
         style="fill:#ffffff;fill-opacity:1;fill-rule:nonzero;stroke:none"
         id="path36" /><path
         d="m 2096.52,141.348 c 1.64,-3.157 3.82,-5.715 6.53,-7.668 2.72,-1.953 5.9,-3.407 9.56,-4.356 3.66,-0.945 7.44,-1.414 11.35,-1.414 2.65,0 5.49,0.215 8.52,0.664 3.02,0.438 5.87,1.289 8.51,2.547 2.65,1.262 4.86,3 6.62,5.207 1.77,2.207 2.66,5.02 2.66,8.426 0,3.652 -1.17,6.621 -3.51,8.887 -2.33,2.277 -5.39,4.172 -9.18,5.683 -3.78,1.516 -8.06,2.832 -12.86,3.977 -4.79,1.133 -9.66,2.39 -14.57,3.777 -5.05,1.262 -9.97,2.805 -14.76,4.641 -4.8,1.824 -9.09,4.187 -12.87,7.097 -3.78,2.903 -6.84,6.524 -9.17,10.879 -2.35,4.348 -3.51,9.621 -3.51,15.801 0,6.934 1.48,12.961 4.45,18.067 2.96,5.117 6.84,9.375 11.63,12.773 4.8,3.41 10.23,5.93 16.28,7.578 6.06,1.633 12.11,2.453 18.17,2.453 7.06,0 13.85,-0.781 20.34,-2.363 6.49,-1.574 12.26,-4.133 17.31,-7.668 5.05,-3.523 9.06,-8.035 12.03,-13.523 2.95,-5.489 4.44,-12.149 4.44,-19.961 h -28.76 c -0.26,4.031 -1.11,7.371 -2.56,10.027 -1.45,2.648 -3.38,4.726 -5.77,6.242 -2.4,1.512 -5.15,2.586 -8.23,3.211 -3.1,0.637 -6.47,0.949 -10.13,0.949 -2.39,0 -4.8,-0.254 -7.19,-0.754 -2.4,-0.507 -4.57,-1.386 -6.53,-2.644 -1.95,-1.27 -3.57,-2.844 -4.83,-4.738 -1.26,-1.895 -1.88,-4.286 -1.88,-7.188 0,-2.656 0.5,-4.793 1.51,-6.434 1.01,-1.64 2.99,-3.156 5.96,-4.543 2.96,-1.386 7.06,-2.773 12.31,-4.16 5.22,-1.394 12.07,-3.164 20.52,-5.3 2.52,-0.508 6.03,-1.418 10.51,-2.747 4.47,-1.328 8.92,-3.437 13.34,-6.335 4.41,-2.911 8.23,-6.79 11.45,-11.641 3.21,-4.856 4.82,-11.074 4.82,-18.645 0,-6.179 -1.2,-11.914 -3.59,-17.214 -2.41,-5.305 -5.96,-9.875 -10.7,-13.723 -4.72,-3.848 -10.59,-6.844 -17.6,-8.985 -7,-2.148 -15.1,-3.222 -24.31,-3.222 -7.44,0 -14.67,0.918 -21.67,2.746 -7,1.824 -13.19,4.695 -18.55,8.613 -5.36,3.906 -9.62,8.895 -12.77,14.949 -3.15,6.055 -4.67,13.243 -4.54,21.575 h 28.76 c 0,-4.543 0.82,-8.391 2.46,-11.543"
         style="fill:#ffffff;fill-opacity:1;fill-rule:nonzero;stroke:none"
         id="path38" /><path
         d="m 2240.53,188.27 c -4.29,0 -7.89,-0.977 -10.79,-2.93 -2.9,-1.953 -5.26,-4.481 -7.09,-7.567 -1.83,-3.097 -3.12,-6.503 -3.88,-10.214 -0.76,-3.731 -1.14,-7.414 -1.14,-11.075 0,-3.535 0.38,-7.129 1.14,-10.793 0.76,-3.652 1.99,-6.972 3.69,-9.929 1.71,-2.969 4,-5.391 6.9,-7.285 2.9,-1.895 6.44,-2.844 10.61,-2.844 6.42,0 11.37,1.797 14.85,5.402 3.47,3.594 5.65,8.418 6.52,14.473 h 25.93 c -1.77,-13 -6.81,-22.903 -15.13,-29.707 -8.34,-6.817 -19,-10.227 -31.99,-10.227 -7.31,0 -14.03,1.231 -20.15,3.692 -6.13,2.461 -11.32,5.898 -15.61,10.312 -4.3,4.414 -7.64,9.688 -10.03,15.801 -2.4,6.125 -3.6,12.844 -3.6,20.156 0,7.57 1.1,14.602 3.31,21.106 2.21,6.492 5.46,12.109 9.74,16.836 4.29,4.734 9.54,8.425 15.72,11.074 6.18,2.644 13.24,3.972 21.19,3.972 5.8,0 11.39,-0.761 16.75,-2.273 5.36,-1.516 10.15,-3.82 14.38,-6.906 4.22,-3.094 7.67,-6.942 10.31,-11.543 2.65,-4.61 4.16,-10.059 4.55,-16.367 h -26.31 c -1.77,11.222 -8.39,16.836 -19.87,16.836"
         style="fill:#ffffff;fill-opacity:1;fill-rule:nonzero;stroke:none"
         id="path40" /><path
         d="m 2329.28,243.152 v -50.906 h 0.57 c 3.41,5.684 7.76,9.813 13.06,12.402 5.3,2.579 10.47,3.875 15.51,3.875 7.2,0 13.09,-0.976 17.7,-2.929 4.6,-1.961 8.23,-4.676 10.88,-8.145 2.65,-3.465 4.51,-7.695 5.58,-12.676 1.08,-4.988 1.62,-10.507 1.62,-16.562 v -60.176 h -26.88 v 55.266 c 0,8.066 -1.26,14.09 -3.79,18.066 -2.52,3.973 -7,5.965 -13.43,5.965 -7.32,0 -12.61,-2.176 -15.89,-6.531 -3.29,-4.356 -4.93,-11.516 -4.93,-21.477 v -51.289 h -26.87 v 135.117 h 26.87"
         style="fill:#ffffff;fill-opacity:1;fill-rule:nonzero;stroke:none"
         id="path42" /><path
         d="m 2439.61,145.41 c 0.76,-3.722 2.05,-7.062 3.88,-10.031 1.83,-2.957 4.26,-5.332 7.29,-7.09 3.02,-1.766 6.8,-2.656 11.35,-2.656 4.54,0 8.35,0.89 11.45,2.656 3.09,1.758 5.55,4.133 7.37,7.09 1.83,2.969 3.13,6.309 3.89,10.031 0.75,3.719 1.13,7.539 1.13,11.453 0,3.907 -0.38,7.754 -1.13,11.543 -0.76,3.782 -2.06,7.121 -3.89,10.032 -1.82,2.898 -4.28,5.261 -7.37,7.089 -3.1,1.836 -6.91,2.743 -11.45,2.743 -4.55,0 -8.33,-0.907 -11.35,-2.743 -3.03,-1.828 -5.46,-4.191 -7.29,-7.089 -1.83,-2.911 -3.12,-6.25 -3.88,-10.032 -0.76,-3.789 -1.14,-7.636 -1.14,-11.543 0,-3.914 0.38,-7.734 1.14,-11.453 z m -24.41,32.742 c 2.39,6.368 5.8,11.797 10.22,16.27 4.41,4.484 9.71,7.949 15.89,10.41 6.18,2.461 13.12,3.691 20.82,3.691 7.69,0 14.66,-1.23 20.9,-3.691 6.25,-2.461 11.59,-5.926 16,-10.41 4.41,-4.473 7.82,-9.902 10.21,-16.27 2.41,-6.375 3.6,-13.464 3.6,-21.289 0,-7.82 -1.19,-14.89 -3.6,-21.199 -2.39,-6.309 -5.8,-11.699 -10.21,-16.172 -4.41,-4.484 -9.75,-7.922 -16,-10.312 -6.24,-2.403 -13.21,-3.606 -20.9,-3.606 -7.7,0 -14.64,1.203 -20.82,3.606 -6.18,2.39 -11.48,5.828 -15.89,10.312 -4.42,4.473 -7.83,9.863 -10.22,16.172 -2.4,6.309 -3.6,13.379 -3.6,21.199 0,7.825 1.2,14.914 3.6,21.289"
         style="fill:#ffffff;fill-opacity:1;fill-rule:nonzero;stroke:none"
         id="path44" /><path
         d="m 2555.22,145.41 c 0.76,-3.722 2.05,-7.062 3.89,-10.031 1.82,-2.957 4.26,-5.332 7.28,-7.09 3.03,-1.766 6.81,-2.656 11.35,-2.656 4.54,0 8.36,0.89 11.46,2.656 3.08,1.758 5.54,4.133 7.37,7.09 1.82,2.969 3.12,6.309 3.89,10.031 0.75,3.719 1.13,7.539 1.13,11.453 0,3.907 -0.38,7.754 -1.13,11.543 -0.77,3.782 -2.07,7.121 -3.89,10.032 -1.83,2.898 -4.29,5.261 -7.37,7.089 -3.1,1.836 -6.92,2.743 -11.46,2.743 -4.54,0 -8.32,-0.907 -11.35,-2.743 -3.02,-1.828 -5.46,-4.191 -7.28,-7.089 -1.84,-2.911 -3.13,-6.25 -3.89,-10.032 -0.75,-3.789 -1.13,-7.636 -1.13,-11.543 0,-3.914 0.38,-7.734 1.13,-11.453 z m -24.4,32.742 c 2.39,6.368 5.8,11.797 10.21,16.27 4.42,4.484 9.72,7.949 15.9,10.41 6.17,2.461 13.12,3.691 20.81,3.691 7.7,0 14.67,-1.23 20.91,-3.691 6.25,-2.461 11.58,-5.926 15.99,-10.41 4.42,-4.473 7.83,-9.902 10.22,-16.27 2.4,-6.375 3.59,-13.464 3.59,-21.289 0,-7.82 -1.19,-14.89 -3.59,-21.199 -2.39,-6.309 -5.8,-11.699 -10.22,-16.172 -4.41,-4.484 -9.74,-7.922 -15.99,-10.312 -6.24,-2.403 -13.21,-3.606 -20.91,-3.606 -7.69,0 -14.64,1.203 -20.81,3.606 -6.18,2.39 -11.48,5.828 -15.9,10.312 -4.41,4.473 -7.82,9.863 -10.21,16.172 -2.41,6.309 -3.61,13.379 -3.61,21.199 0,7.825 1.2,14.914 3.61,21.289"
         style="fill:#ffffff;fill-opacity:1;fill-rule:nonzero;stroke:none"
         id="path46" /><path
         d="M 2673.5,243.152 V 108.035 h -26.87 v 135.117 h 26.87"
         style="fill:#ffffff;fill-opacity:1;fill-rule:nonzero;stroke:none"
         id="path48" /><path
         d="m 2772.27,145.41 c 0.76,-3.722 2.05,-7.062 3.89,-10.031 1.82,-2.957 4.26,-5.332 7.28,-7.09 3.03,-1.766 6.81,-2.656 11.35,-2.656 4.54,0 8.36,0.89 11.46,2.656 3.08,1.758 5.54,4.133 7.37,7.09 1.83,2.969 3.12,6.309 3.89,10.031 0.75,3.719 1.13,7.539 1.13,11.453 0,3.907 -0.38,7.754 -1.13,11.543 -0.77,3.782 -2.06,7.121 -3.89,10.032 -1.83,2.898 -4.29,5.261 -7.37,7.089 -3.1,1.836 -6.92,2.743 -11.46,2.743 -4.54,0 -8.32,-0.907 -11.35,-2.743 -3.02,-1.828 -5.46,-4.191 -7.28,-7.089 -1.84,-2.911 -3.13,-6.25 -3.89,-10.032 -0.75,-3.789 -1.13,-7.636 -1.13,-11.543 0,-3.914 0.38,-7.734 1.13,-11.453 z m -24.4,32.742 c 2.39,6.368 5.8,11.797 10.21,16.27 4.42,4.484 9.72,7.949 15.9,10.41 6.17,2.461 13.12,3.691 20.81,3.691 7.7,0 14.67,-1.23 20.91,-3.691 6.25,-2.461 11.58,-5.926 16,-10.41 4.41,-4.473 7.82,-9.902 10.21,-16.27 2.4,-6.375 3.59,-13.464 3.59,-21.289 0,-7.82 -1.19,-14.89 -3.59,-21.199 -2.39,-6.309 -5.8,-11.699 -10.21,-16.172 -4.42,-4.484 -9.75,-7.922 -16,-10.312 -6.24,-2.403 -13.21,-3.606 -20.91,-3.606 -7.69,0 -14.64,1.203 -20.81,3.606 -6.18,2.39 -11.48,5.828 -15.9,10.312 -4.41,4.473 -7.82,9.863 -10.21,16.172 -2.4,6.309 -3.61,13.379 -3.61,21.199 0,7.825 1.21,14.914 3.61,21.289"
         style="fill:#ffffff;fill-opacity:1;fill-rule:nonzero;stroke:none"
         id="path50" /><path
         d="m 2852.7,187.898 v 17.981 h 16.09 v 7.566 c 0,8.703 2.71,15.832 8.13,21.379 5.43,5.555 13.63,8.328 24.6,8.328 2.4,0 4.79,-0.097 7.2,-0.281 2.39,-0.187 4.72,-0.351 7,-0.48 v -20.059 c -3.16,0.383 -6.44,0.578 -9.84,0.578 -3.67,0 -6.28,-0.859 -7.86,-2.558 -1.58,-1.7 -2.36,-4.571 -2.36,-8.614 v -5.859 h 18.55 v -17.981 h -18.55 v -79.863 h -26.87 v 79.863 h -16.09"
         style="fill:#ffffff;fill-opacity:1;fill-rule:nonzero;stroke:none"
         id="path52" /><path
         d="m 3023.21,243.152 31.6,-92.91 h 0.37 l 29.9,92.91 h 41.83 V 108.035 h -27.82 v 95.754 h -0.38 l -33.12,-95.754 h -22.9 l -33.11,94.817 h -0.37 v -94.817 h -27.83 v 135.117 h 41.83"
         style="fill:#ffffff;fill-opacity:1;fill-rule:nonzero;stroke:none"
         id="path54" /><path
         d="m 3209.31,182.977 c -3.21,3.527 -8.1,5.293 -14.67,5.293 -4.28,0 -7.85,-0.723 -10.69,-2.168 -2.83,-1.454 -5.11,-3.25 -6.81,-5.399 -1.7,-2.14 -2.91,-4.414 -3.59,-6.808 -0.7,-2.403 -1.11,-4.54 -1.23,-6.434 h 43.71 c -1.26,6.805 -3.5,11.98 -6.72,15.516 z m -30.37,-51.473 c 4.03,-3.906 9.84,-5.871 17.41,-5.871 5.42,0 10.09,1.359 14.01,4.074 3.9,2.715 6.3,5.586 7.19,8.613 h 23.65 c -3.78,-11.738 -9.59,-20.129 -17.41,-25.175 -7.83,-5.04 -17.29,-7.571 -28.38,-7.571 -7.7,0 -14.64,1.231 -20.82,3.692 -6.19,2.461 -11.42,5.968 -15.71,10.507 -4.29,4.543 -7.6,9.961 -9.94,16.27 -2.33,6.309 -3.49,13.254 -3.49,20.82 0,7.317 1.2,14.121 3.59,20.442 2.39,6.297 5.8,11.758 10.22,16.367 4.42,4.598 9.68,8.23 15.8,10.879 6.12,2.644 12.9,3.972 20.35,3.972 8.32,0 15.57,-1.609 21.75,-4.824 6.19,-3.222 11.26,-7.539 15.24,-12.969 3.97,-5.417 6.84,-11.601 8.61,-18.542 1.77,-6.934 2.39,-14.192 1.9,-21.758 h -70.59 c 0.37,-8.703 2.58,-15.02 6.62,-18.926"
         style="fill:#ffffff;fill-opacity:1;fill-rule:nonzero;stroke:none"
         id="path56" /><path
         d="m 3327.12,168.875 c -0.77,3.723 -2.06,7.004 -3.88,9.844 -1.84,2.844 -4.2,5.136 -7.1,6.906 -2.9,1.766 -6.56,2.645 -10.98,2.645 -4.41,0 -8.13,-0.879 -11.16,-2.645 -3.03,-1.77 -5.46,-4.102 -7.28,-7.004 -1.84,-2.898 -3.16,-6.211 -3.98,-9.93 -0.82,-3.722 -1.23,-7.609 -1.23,-11.64 0,-3.781 0.44,-7.571 1.32,-11.36 0.89,-3.777 2.3,-7.156 4.26,-10.117 1.96,-2.969 4.41,-5.371 7.38,-7.195 2.97,-1.828 6.53,-2.746 10.69,-2.746 4.42,0 8.11,0.89 11.08,2.656 2.96,1.758 5.32,4.133 7.09,7.09 1.76,2.969 3.02,6.348 3.79,10.129 0.75,3.789 1.13,7.695 1.13,11.726 0,4.043 -0.38,7.922 -1.13,11.641 z m 1.13,-48.348 c -3.16,-5.293 -7.29,-9.113 -12.39,-11.445 -5.11,-2.336 -10.88,-3.508 -17.32,-3.508 -7.32,0 -13.75,1.426 -19.31,4.258 -5.54,2.844 -10.12,6.691 -13.72,11.543 -3.59,4.863 -6.3,10.441 -8.13,16.75 -1.83,6.309 -2.74,12.871 -2.74,19.688 0,6.55 0.91,12.89 2.74,19.011 1.83,6.125 4.54,11.516 8.13,16.184 3.6,4.668 8.11,8.418 13.54,11.258 5.42,2.843 11.73,4.257 18.92,4.257 5.81,0 11.32,-1.23 16.56,-3.691 5.23,-2.461 9.36,-6.082 12.39,-10.879 h 0.38 v 49.199 h 26.88 V 108.035 h -25.55 v 12.492 h -0.38"
         style="fill:#ffffff;fill-opacity:1;fill-rule:nonzero;stroke:none"
         id="path58" /><path
         d="m 3402.06,205.879 v -97.844 h -26.88 v 97.844 z m -26.88,15.137 v 22.136 h 26.88 v -22.136 h -26.88"
         style="fill:#ffffff;fill-opacity:1;fill-rule:nonzero;stroke:none"
         id="path60" /><path
         d="m 3469.99,188.27 c -4.3,0 -7.89,-0.977 -10.79,-2.93 -2.9,-1.953 -5.27,-4.481 -7.09,-7.567 -1.84,-3.097 -3.13,-6.503 -3.89,-10.214 -0.75,-3.731 -1.13,-7.414 -1.13,-11.075 0,-3.535 0.38,-7.129 1.13,-10.793 0.76,-3.652 1.99,-6.972 3.69,-9.929 1.71,-2.969 4,-5.391 6.9,-7.285 2.91,-1.895 6.44,-2.844 10.61,-2.844 6.43,0 11.38,1.797 14.85,5.402 3.47,3.594 5.65,8.418 6.53,14.473 h 25.92 c -1.76,-13 -6.81,-22.903 -15.13,-29.707 -8.33,-6.817 -19,-10.227 -31.98,-10.227 -7.32,0 -14.04,1.231 -20.16,3.692 -6.12,2.461 -11.32,5.898 -15.61,10.312 -4.29,4.414 -7.63,9.688 -10.03,15.801 -2.4,6.125 -3.6,12.844 -3.6,20.156 0,7.57 1.1,14.602 3.31,21.106 2.21,6.492 5.46,12.109 9.75,16.836 4.28,4.734 9.53,8.425 15.71,11.074 6.18,2.644 13.24,3.972 21.19,3.972 5.8,0 11.39,-0.761 16.75,-2.273 5.36,-1.516 10.16,-3.82 14.38,-6.906 4.22,-3.094 7.67,-6.942 10.32,-11.543 2.64,-4.61 4.16,-10.059 4.54,-16.367 h -26.31 c -1.77,11.222 -8.39,16.836 -19.86,16.836"
         style="fill:#ffffff;fill-opacity:1;fill-rule:nonzero;stroke:none"
         id="path62" /><path
         d="m 3559.5,205.879 v -97.844 h -26.88 v 97.844 z m -26.88,15.137 v 22.136 h 26.88 v -22.136 h -26.88"
         style="fill:#ffffff;fill-opacity:1;fill-rule:nonzero;stroke:none"
         id="path64" /><path
         d="m 3606.23,205.879 v -13.633 h 0.57 c 3.4,5.684 7.82,9.813 13.25,12.402 5.42,2.579 10.97,3.875 16.65,3.875 7.19,0 13.08,-0.976 17.69,-2.929 4.6,-1.961 8.23,-4.676 10.88,-8.145 2.66,-3.465 4.51,-7.695 5.59,-12.676 1.07,-4.988 1.61,-10.507 1.61,-16.562 v -60.176 h -26.88 v 55.266 c 0,8.066 -1.26,14.09 -3.79,18.066 -2.52,3.973 -7,5.965 -13.42,5.965 -7.33,0 -12.62,-2.176 -15.9,-6.531 -3.28,-4.356 -4.93,-11.516 -4.93,-21.477 v -51.289 h -26.87 v 97.844 h 25.55"
         style="fill:#ffffff;fill-opacity:1;fill-rule:nonzero;stroke:none"
         id="path66" /><path
         d="m 3752.04,182.977 c -3.22,3.527 -8.11,5.293 -14.67,5.293 -4.29,0 -7.85,-0.723 -10.69,-2.168 -2.84,-1.454 -5.11,-3.25 -6.81,-5.399 -1.71,-2.14 -2.91,-4.414 -3.59,-6.808 -0.71,-2.403 -1.12,-4.54 -1.23,-6.434 h 43.71 c -1.26,6.805 -3.51,11.98 -6.72,15.516 z m -30.37,-51.473 c 4.03,-3.906 9.83,-5.871 17.41,-5.871 5.42,0 10.09,1.359 14,4.074 3.91,2.715 6.3,5.586 7.19,8.613 h 23.65 c -3.78,-11.738 -9.59,-20.129 -17.41,-25.175 -7.82,-5.04 -17.29,-7.571 -28.38,-7.571 -7.69,0 -14.64,1.231 -20.82,3.692 -6.18,2.461 -11.42,5.968 -15.7,10.507 -4.3,4.543 -7.61,9.961 -9.94,16.27 -2.34,6.309 -3.5,13.254 -3.5,20.82 0,7.317 1.2,14.121 3.59,20.442 2.4,6.297 5.8,11.758 10.23,16.367 4.41,4.598 9.68,8.23 15.8,10.879 6.11,2.644 12.89,3.972 20.34,3.972 8.32,0 15.58,-1.609 21.76,-4.824 6.18,-3.222 11.26,-7.539 15.23,-12.969 3.98,-5.417 6.85,-11.601 8.62,-18.542 1.76,-6.934 2.39,-14.192 1.89,-21.758 h -70.58 c 0.37,-8.703 2.57,-15.02 6.62,-18.926"
         style="fill:#ffffff;fill-opacity:1;fill-rule:nonzero;stroke:none"
         id="path68" /></g></g></svg>
